<?xml version="1.0" standalone="no"?><!-- Generator: Gravit.io --><svg xmlns="http://www.w3.org/2000/svg" xmlns:xlink="http://www.w3.org/1999/xlink" style="isolation:isolate" viewBox="282.022 3406.106 140.484 140.484" width="140.484" height="140.484"><g id="null"><g id="null"><rect x="302.596" y="3426.679" width="99.337" height="99.337" transform="matrix(0.707,-0.707,0.707,0.707,-2354.973,1267.287)" fill="rgb(184,45,46)"/></g><g id="null"><path d=" M 357.891 3453.56 C 354.287 3451.667 350.413 3450.776 346.6 3450.776 C 337.813 3450.776 329.313 3455.532 324.953 3463.839 C 318.7 3475.75 323.315 3490.53 335.232 3496.777 C 338.835 3498.67 342.705 3499.562 346.522 3499.562 C 349.109 3499.562 351.669 3499.15 354.105 3498.357 C 354.042 3498.034 353.98 3497.7 353.933 3497.372 C 351.581 3498.154 349.088 3498.561 346.522 3498.561 C 342.778 3498.561 339.028 3497.643 335.701 3495.891 C 324.275 3489.894 319.853 3475.724 325.845 3464.304 C 329.886 3456.575 337.845 3451.777 346.6 3451.777 C 350.35 3451.777 354.1 3452.695 357.432 3454.447 C 363.518 3457.639 367.622 3463.156 369.213 3469.341 C 369.416 3469.336 369.63 3469.336 369.839 3469.336 C 369.974 3469.336 370.104 3469.336 370.24 3469.341 C 368.623 3462.786 364.321 3456.929 357.891 3453.56 Z " fill="rgb(255,255,255)" vector-effect="non-scaling-stroke" stroke-width="1.5" stroke="rgb(255,255,255)" stroke-linejoin="miter" stroke-linecap="butt" stroke-miterlimit="4"/><path d=" M 360.806 3448.006 C 356.259 3445.623 351.388 3444.491 346.585 3444.491 C 335.544 3444.491 324.88 3450.468 319.394 3460.924 C 311.53 3475.922 317.313 3494.462 332.311 3502.326 C 336.859 3504.709 341.735 3505.841 346.533 3505.841 C 350.339 3505.841 353.912 3505.318 357.432 3503.952 C 357.088 3503.754 356.759 3503.519 356.456 3503.264 C 353.271 3504.416 350.043 3504.845 346.533 3504.845 C 341.777 3504.845 337.015 3503.671 332.775 3501.445 C 318.288 3493.846 312.687 3475.881 320.28 3461.393 C 325.427 3451.584 335.503 3445.493 346.59 3445.493 C 351.346 3445.493 356.102 3446.666 360.342 3448.893 C 368.655 3453.248 374.042 3461.028 375.685 3469.597 C 376.034 3469.628 376.384 3469.659 376.733 3469.696 C 375.106 3460.726 369.51 3452.569 360.806 3448.006 Z " fill="rgb(255,255,255)" vector-effect="non-scaling-stroke" stroke-width="2" stroke="rgb(255,255,255)" stroke-linejoin="miter" stroke-linecap="butt" stroke-miterlimit="4"/><mask id="_mask_MCuEtikXHHn3G9PcWRNRLvmoEulTMQ5H"><path d=" M 349.606 3483.475 C 351.175 3482.307 353.281 3482.347 354.871 3483.437 L 354.871 3490.554 C 349.05 3492.122 348.342 3489.142 348.144 3487.853 C 347.903 3486.287 348.153 3484.558 349.606 3483.475 Z " fill="white" stroke="none"/></mask><path d=" M 349.606 3483.475 C 351.175 3482.307 353.281 3482.347 354.871 3483.437 L 354.871 3490.554 C 349.05 3492.122 348.342 3489.142 348.144 3487.853 C 347.903 3486.287 348.153 3484.558 349.606 3483.475 Z " fill="none" mask="url(#_mask_MCuEtikXHHn3G9PcWRNRLvmoEulTMQ5H)" vector-effect="non-scaling-stroke" stroke-width="4" stroke="rgb(255,255,255)" stroke-linejoin="miter" stroke-linecap="butt" stroke-miterlimit="4"/><mask id="_mask_iMhebO0Kd6m8QaPLtfd3i8HQ6eN5DIQj" x="-200%" y="-200%" width="400%" height="400%"><rect x="0" y="0" width="100%" height="100%" style="fill:white;"/><path d=" M 383.842 3472.113 C 384.316 3498.687 383.922 3504.151 370.038 3505.007 C 356.344 3505.85 354.497 3501.254 354.753 3492.598 C 349.881 3493.487 346.069 3492.001 346.205 3487.481 C 346.375 3481.87 351.498 3480.203 354.695 3481.784 L 354.753 3472.253 Q 364.58 3470.573 369.965 3470.6 C 374.877 3470.626 379.914 3470.565 383.842 3472.113 Z " fill="black" stroke="none"/></mask><path d=" M 383.842 3472.113 C 384.316 3498.687 383.922 3504.151 370.038 3505.007 C 356.344 3505.85 354.497 3501.254 354.753 3492.598 C 349.881 3493.487 346.069 3492.001 346.205 3487.481 C 346.375 3481.87 351.498 3480.203 354.695 3481.784 L 354.753 3472.253 Q 364.58 3470.573 369.965 3470.6 C 374.877 3470.626 379.914 3470.565 383.842 3472.113 Z " fill="none" mask="url(#_mask_iMhebO0Kd6m8QaPLtfd3i8HQ6eN5DIQj)" vector-effect="non-scaling-stroke" stroke-width="4" stroke="rgb(255,255,255)" stroke-linejoin="round" stroke-linecap="square" stroke-miterlimit="3"/><path d=" M 354.425 3473.17 C 365.498 3475.792 376.741 3476.036 384 3472.669" fill="none" vector-effect="non-scaling-stroke" stroke-width="2.282" stroke="rgb(255,255,255)" stroke-linejoin="round" stroke-linecap="round" stroke-miterlimit="3"/></g></g></svg>