<?xml version="1.0" standalone="no"?><!-- Generator: Gravit.io --><svg xmlns="http://www.w3.org/2000/svg" xmlns:xlink="http://www.w3.org/1999/xlink" style="isolation:isolate" viewBox="13.561 448.45 383.738 383.738" width="383.738" height="383.738"><g id="null"><path d=" M 149.253 650.126 L 149.253 650.126 Q 148.686 650.126 148.686 650.661 L 148.686 650.661 L 148.686 650.661 Q 148.686 650.928 148.861 651.144 L 148.861 651.144 L 148.861 651.144 Q 149.036 651.36 149.287 651.36 L 149.287 651.36 L 149.287 651.36 Q 150.555 651.36 151.356 651.381 L 151.356 651.381 L 151.356 651.381 Q 152.14 651.401 153.224 651.401 L 153.224 651.401 L 153.224 651.401 Q 153.391 651.401 153.541 651.175 L 153.541 651.175 L 153.541 651.175 Q 153.691 650.949 153.691 650.702 L 153.691 650.702 L 153.691 650.702 Q 153.691 650.105 152.924 650.105 L 152.924 650.105 L 151.689 650.105 L 151.689 650.105 Q 151.689 649.488 151.706 648.953 L 151.706 648.953 L 151.706 648.953 Q 151.723 648.419 151.723 647.781 L 151.723 647.781 L 151.723 647.781 Q 151.723 643.543 151.305 634.492 L 151.305 634.492 L 151.305 634.492 Q 150.872 625.091 150.872 621.244 L 150.872 621.244 L 150.872 621.244 Q 150.872 621.142 150.922 621.08 L 150.922 621.08 L 150.922 621.08 Q 150.955 621.039 151.08 621.008 L 151.08 621.008 L 151.08 621.008 Q 151.205 620.977 151.322 620.977 L 151.322 620.977 L 151.689 620.977 L 151.689 620.977 Q 151.889 620.977 152.073 620.998 L 152.073 620.998 L 152.073 620.998 Q 152.257 621.018 152.507 621.018 L 152.507 621.018 L 152.507 621.018 Q 152.69 621.018 152.807 620.812 L 152.807 620.812 L 152.807 620.812 Q 152.924 620.607 152.924 620.339 L 152.924 620.339 L 152.924 620.339 Q 152.924 620.051 152.749 619.897 L 152.749 619.897 L 152.749 619.897 Q 152.574 619.743 152.307 619.743 L 152.307 619.743 L 152.307 619.743 Q 151.506 619.743 151.005 619.722 L 151.005 619.722 L 150.037 619.722 L 150.037 619.722 Q 149.053 619.722 148.769 619.846 L 148.769 619.846 L 148.769 619.846 Q 148.486 620.01 148.486 620.442 L 148.486 620.442 L 148.486 620.442 Q 148.486 621.039 148.853 621.039 L 148.853 621.039 L 150.021 621.039 L 150.021 621.039 Q 150.121 621.43 150.121 623.713 L 150.121 623.713 L 150.121 623.713 Q 150.121 625.317 150.104 626.511 L 150.104 626.511 L 150.087 628.65 L 150.204 632.661 L 150.354 637.927 L 150.354 637.927 Q 150.588 646.094 150.588 650.126 L 150.588 650.126 L 149.253 650.126 Z  M 163.986 609.437 L 163.986 609.437 Q 163.803 612.09 163.002 615.752 L 163.002 615.752 L 163.002 615.752 Q 162.852 615.258 162.476 613.942 L 162.476 613.942 L 162.476 613.942 Q 162.101 612.625 161.867 611.72 L 161.867 611.72 L 161.867 611.72 Q 161.6 610.712 161.567 610.28 L 161.567 610.28 L 160.983 609.313 L 160.366 609.869 L 160.366 609.869 Q 160.382 610.486 160.975 612.255 L 160.975 612.255 L 160.975 612.255 Q 161.567 614.024 162.243 615.505 L 162.243 615.505 L 162.243 615.505 Q 162.918 616.986 163.235 616.986 L 163.235 616.986 L 163.235 616.986 Q 163.719 616.986 163.719 616.102 L 163.719 616.102 L 163.719 616.102 Q 163.719 615.32 163.87 614.538 L 163.87 614.538 L 163.87 614.538 Q 164.02 613.757 164.337 612.687 L 164.337 612.687 L 164.337 612.687 Q 164.587 611.761 164.737 611.165 L 164.737 611.165 L 164.704 610.918 L 164.954 610.28 L 164.921 610.074 L 164.921 610.074 Q 165.054 609.704 165.054 609.601 L 165.054 609.601 L 165.054 609.601 Q 165.054 609.231 164.437 609.108 L 164.437 609.108 L 163.986 609.437 Z  M 163.052 619.208 L 163.052 619.208 Q 161.967 619.208 161.15 620.175 L 161.15 620.175 L 161.15 620.175 Q 160.382 621.121 160.007 622.396 L 160.007 622.396 L 160.007 622.396 Q 159.631 623.672 159.631 625.071 L 159.631 625.071 L 159.631 625.071 Q 159.631 627.107 160.132 629.144 L 160.132 629.144 L 160.132 629.144 Q 160.516 630.686 161.016 632.034 L 161.016 632.034 L 161.016 632.034 Q 161.517 633.381 162.334 635.315 L 162.334 635.315 L 162.802 636.426 L 162.802 636.426 Q 163.586 638.298 164.053 640.406 L 164.053 640.406 L 164.053 640.406 Q 164.52 642.515 164.52 644.572 L 164.52 644.572 L 164.52 644.572 Q 164.52 645.477 164.353 646.588 L 164.353 646.588 L 164.353 646.588 Q 164.187 647.699 163.853 648.83 L 163.853 648.83 L 163.853 648.83 Q 163.502 650.044 162.877 650.805 L 162.877 650.805 L 162.877 650.805 Q 162.251 651.566 161.484 651.566 L 161.484 651.566 L 161.484 651.566 Q 161.15 651.566 160.566 651.237 L 160.566 651.237 L 160.566 651.237 Q 159.948 650.928 159.598 650.928 L 159.598 650.928 L 159.598 650.928 Q 159.231 650.928 159.231 651.443 L 159.231 651.443 L 159.231 651.443 Q 159.465 651.936 159.865 652.163 L 159.865 652.163 L 159.865 652.163 Q 160.249 652.389 160.557 652.44 L 160.557 652.44 L 160.557 652.44 Q 160.866 652.492 161.484 652.492 L 161.484 652.492 L 161.484 652.492 Q 162.501 652.492 163.369 651.741 L 163.369 651.741 L 163.369 651.741 Q 164.237 650.99 164.754 649.756 L 164.754 649.756 L 164.754 649.756 Q 165.238 648.583 165.496 647.277 L 165.496 647.277 L 165.496 647.277 Q 165.755 645.971 165.755 644.778 L 165.755 644.778 L 165.755 644.778 Q 165.755 642.844 165.388 640.972 L 165.388 640.972 L 165.388 640.972 Q 165.104 639.491 164.704 638.267 L 164.704 638.267 L 164.704 638.267 Q 164.303 637.043 163.603 635.294 L 163.603 635.294 L 163.286 634.472 L 163.286 634.472 Q 162.635 632.846 162.084 631.386 L 162.084 631.386 L 162.084 631.386 Q 161.5 629.884 161.15 628.136 L 161.15 628.136 L 161.15 628.136 Q 160.799 626.387 160.799 624.721 L 160.799 624.721 L 160.799 624.721 Q 160.799 623.734 161.05 622.787 L 161.05 622.787 L 161.05 622.787 Q 161.317 621.738 161.926 621.018 L 161.926 621.018 L 161.926 621.018 Q 162.535 620.298 163.302 620.298 L 163.302 620.298 L 163.302 620.298 Q 163.553 620.298 163.87 620.504 L 163.87 620.504 L 163.87 620.504 Q 164.203 620.73 164.42 620.73 L 164.42 620.73 L 164.42 620.73 Q 164.637 620.73 164.637 620.401 L 164.637 620.401 L 164.637 620.401 Q 164.637 620.134 164.353 619.856 L 164.353 619.856 L 164.353 619.856 Q 164.07 619.578 163.686 619.393 L 163.686 619.393 L 163.686 619.393 Q 163.302 619.208 163.052 619.208 L 163.052 619.208 Z  M 174.732 619.208 L 174.732 619.208 Q 173.647 619.208 172.83 620.175 L 172.83 620.175 L 172.83 620.175 Q 172.062 621.121 171.687 622.396 L 171.687 622.396 L 171.687 622.396 Q 171.311 623.672 171.311 625.071 L 171.311 625.071 L 171.311 625.071 Q 171.311 627.107 171.812 629.144 L 171.812 629.144 L 171.812 629.144 Q 172.196 630.686 172.696 632.034 L 172.696 632.034 L 172.696 632.034 Q 173.197 633.381 174.014 635.315 L 174.014 635.315 L 174.481 636.426 L 174.481 636.426 Q 175.266 638.298 175.733 640.406 L 175.733 640.406 L 175.733 640.406 Q 176.2 642.515 176.2 644.572 L 176.2 644.572 L 176.2 644.572 Q 176.2 645.477 176.033 646.588 L 176.033 646.588 L 176.033 646.588 Q 175.866 647.699 175.533 648.83 L 175.533 648.83 L 175.533 648.83 Q 175.182 650.044 174.557 650.805 L 174.557 650.805 L 174.557 650.805 Q 173.931 651.566 173.163 651.566 L 173.163 651.566 L 173.163 651.566 Q 172.83 651.566 172.246 651.237 L 172.246 651.237 L 172.246 651.237 Q 171.628 650.928 171.278 650.928 L 171.278 650.928 L 171.278 650.928 Q 170.911 650.928 170.911 651.443 L 170.911 651.443 L 170.911 651.443 Q 171.144 651.936 171.545 652.163 L 171.545 652.163 L 171.545 652.163 Q 171.929 652.389 172.237 652.44 L 172.237 652.44 L 172.237 652.44 Q 172.546 652.492 173.163 652.492 L 173.163 652.492 L 173.163 652.492 Q 174.181 652.492 175.049 651.741 L 175.049 651.741 L 175.049 651.741 Q 175.916 650.99 176.434 649.756 L 176.434 649.756 L 176.434 649.756 Q 176.917 648.583 177.176 647.277 L 177.176 647.277 L 177.176 647.277 Q 177.435 645.971 177.435 644.778 L 177.435 644.778 L 177.435 644.778 Q 177.435 642.844 177.068 640.972 L 177.068 640.972 L 177.068 640.972 Q 176.784 639.491 176.384 638.267 L 176.384 638.267 L 176.384 638.267 Q 175.983 637.043 175.282 635.294 L 175.282 635.294 L 174.965 634.472 L 174.965 634.472 Q 174.315 632.846 173.764 631.386 L 173.764 631.386 L 173.764 631.386 Q 173.18 629.884 172.83 628.136 L 172.83 628.136 L 172.83 628.136 Q 172.479 626.387 172.479 624.721 L 172.479 624.721 L 172.479 624.721 Q 172.479 623.734 172.729 622.787 L 172.729 622.787 L 172.729 622.787 Q 172.996 621.738 173.605 621.018 L 173.605 621.018 L 173.605 621.018 Q 174.214 620.298 174.982 620.298 L 174.982 620.298 L 174.982 620.298 Q 175.232 620.298 175.549 620.504 L 175.549 620.504 L 175.549 620.504 Q 175.883 620.73 176.1 620.73 L 176.1 620.73 L 176.1 620.73 Q 176.317 620.73 176.317 620.401 L 176.317 620.401 L 176.317 620.401 Q 176.317 620.134 176.033 619.856 L 176.033 619.856 L 176.033 619.856 Q 175.75 619.578 175.366 619.393 L 175.366 619.393 L 175.366 619.393 Q 174.982 619.208 174.732 619.208 L 174.732 619.208 Z  M 183.625 650.126 L 183.625 650.126 Q 183.058 650.126 183.058 650.661 L 183.058 650.661 L 183.058 650.661 Q 183.058 650.928 183.233 651.144 L 183.233 651.144 L 183.233 651.144 Q 183.408 651.36 183.658 651.36 L 183.658 651.36 L 183.658 651.36 Q 184.926 651.36 185.727 651.381 L 185.727 651.381 L 185.727 651.381 Q 186.512 651.401 187.596 651.401 L 187.596 651.401 L 187.596 651.401 Q 187.763 651.401 187.913 651.175 L 187.913 651.175 L 187.913 651.175 Q 188.063 650.949 188.063 650.702 L 188.063 650.702 L 188.063 650.702 Q 188.063 650.105 187.296 650.105 L 187.296 650.105 L 186.061 650.105 L 186.061 650.105 Q 186.061 649.488 186.078 648.953 L 186.078 648.953 L 186.078 648.953 Q 186.094 648.419 186.094 647.781 L 186.094 647.781 L 186.094 647.781 Q 186.094 643.543 185.677 634.492 L 185.677 634.492 L 185.677 634.492 Q 185.243 625.091 185.243 621.244 L 185.243 621.244 L 185.243 621.244 Q 185.243 621.142 185.294 621.08 L 185.294 621.08 L 185.294 621.08 Q 185.327 621.039 185.452 621.008 L 185.452 621.008 L 185.452 621.008 Q 185.577 620.977 185.694 620.977 L 185.694 620.977 L 186.061 620.977 L 186.061 620.977 Q 186.261 620.977 186.445 620.998 L 186.445 620.998 L 186.445 620.998 Q 186.628 621.018 186.879 621.018 L 186.879 621.018 L 186.879 621.018 Q 187.062 621.018 187.179 620.812 L 187.179 620.812 L 187.179 620.812 Q 187.296 620.607 187.296 620.339 L 187.296 620.339 L 187.296 620.339 Q 187.296 620.051 187.121 619.897 L 187.121 619.897 L 187.121 619.897 Q 186.945 619.743 186.678 619.743 L 186.678 619.743 L 186.678 619.743 Q 185.878 619.743 185.377 619.722 L 185.377 619.722 L 184.409 619.722 L 184.409 619.722 Q 183.425 619.722 183.141 619.846 L 183.141 619.846 L 183.141 619.846 Q 182.857 620.01 182.857 620.442 L 182.857 620.442 L 182.857 620.442 Q 182.857 621.039 183.225 621.039 L 183.225 621.039 L 184.393 621.039 L 184.393 621.039 Q 184.493 621.43 184.493 623.713 L 184.493 623.713 L 184.493 623.713 Q 184.493 625.317 184.476 626.511 L 184.476 626.511 L 184.459 628.65 L 184.576 632.661 L 184.726 637.927 L 184.726 637.927 Q 184.96 646.094 184.96 650.126 L 184.96 650.126 L 183.625 650.126 Z  M 196.823 650.743 L 196.823 650.743 Q 196.823 651.196 197.007 651.504 L 197.007 651.504 L 197.007 651.504 Q 197.19 651.813 197.524 651.813 L 197.524 651.813 L 197.524 651.813 Q 197.758 651.813 197.874 651.628 L 197.874 651.628 L 197.874 651.628 Q 197.974 651.463 197.999 651.288 L 197.999 651.288 L 197.999 651.288 Q 198.024 651.113 198.024 650.702 L 198.024 650.702 L 198.024 650.579 L 198.008 647.472 L 197.991 643.996 L 197.991 626.881 L 197.991 623.61 L 197.974 621.162 L 197.958 621.162 L 198.258 621.121 L 199.793 621.1 L 201.312 621.1 L 201.312 621.1 Q 201.962 621.1 201.962 620.483 L 201.962 620.483 L 201.962 620.483 Q 201.962 620.113 201.812 619.938 L 201.812 619.938 L 201.812 619.938 Q 201.662 619.763 201.245 619.763 L 201.245 619.763 L 197.491 619.784 L 194.07 619.804 L 194.07 619.804 Q 193.202 619.804 192.702 619.907 L 192.702 619.907 L 192.702 619.907 Q 192.268 620.031 192.16 620.154 L 192.16 620.154 L 192.16 620.154 Q 192.051 620.278 192.051 620.607 L 192.051 620.607 L 192.051 620.607 Q 192.051 620.915 192.268 621.08 L 192.268 621.08 L 192.268 621.08 Q 192.485 621.244 192.769 621.244 L 192.769 621.244 L 196.623 621.244 L 196.623 621.244 Q 196.706 621.244 196.706 625.791 L 196.706 625.791 L 196.706 625.791 Q 196.706 627.848 196.69 628.527 L 196.69 628.527 L 196.673 629.74 L 196.673 629.74 Q 196.673 631.509 196.756 636.487 L 196.756 636.487 L 196.756 636.487 Q 196.84 641.486 196.84 643.214 L 196.84 643.214 L 196.84 646.979 L 196.84 646.979 Q 196.84 649.982 196.823 650.743 L 196.823 650.743 Z  M 213.025 651.566 L 213.025 651.566 Q 212.774 651.566 212.574 651.36 L 212.574 651.36 L 212.574 651.36 Q 212.374 651.155 212.374 650.846 L 212.374 650.846 L 212.374 645.333 L 212.374 645.333 Q 212.374 645.004 211.515 644.685 L 211.515 644.685 L 211.515 644.685 Q 210.655 644.366 209.529 644.171 L 209.529 644.171 L 209.529 644.171 Q 208.403 643.975 207.769 643.975 L 207.769 643.975 L 207.769 643.975 Q 207.669 643.975 207.335 645.559 L 207.335 645.559 L 207.335 645.559 Q 207.051 646.938 206.718 648.727 L 206.718 648.727 L 206.718 648.727 Q 206.384 650.517 206.284 651.155 L 206.284 651.155 L 206.284 651.155 Q 206.217 651.463 205.917 651.463 L 205.917 651.463 L 205.917 651.463 Q 205.65 651.463 205.433 651.257 L 205.433 651.257 L 205.433 651.257 Q 205.216 651.052 205.216 650.764 L 205.216 650.764 L 205.216 650.764 Q 205.216 650.723 205.233 650.702 L 205.233 650.702 L 205.233 650.64 L 205.633 648.542 L 206.334 644.654 L 206.834 641.877 L 206.834 641.877 Q 207.352 639.141 208.136 633.525 L 208.136 633.525 L 208.136 633.525 Q 208.987 627.498 209.371 625.359 L 209.371 625.359 L 209.371 625.359 Q 209.654 623.795 209.988 622.376 L 209.988 622.376 L 209.988 622.376 Q 210.205 621.409 210.488 620.668 L 210.488 620.668 L 210.488 620.668 Q 210.755 619.969 210.972 619.969 L 210.972 619.969 L 210.972 619.969 Q 211.506 619.969 211.757 620.38 L 211.757 620.38 L 211.757 620.38 Q 211.94 620.751 212.299 624.597 L 212.299 624.597 L 212.299 624.597 Q 212.658 628.444 212.925 632.229 L 212.925 632.229 L 213.392 639.223 L 213.392 639.223 Q 213.392 641.034 213.592 644.716 L 213.592 644.716 L 213.592 644.716 Q 213.775 648.563 213.775 650.208 L 213.775 650.208 L 213.775 650.393 L 213.775 650.393 Q 213.775 650.949 213.675 651.216 L 213.675 651.216 L 213.675 651.216 Q 213.559 651.566 213.025 651.566 L 213.025 651.566 Z  M 211.673 643.42 L 211.673 643.42 Q 212.341 643.42 212.341 643.008 L 212.341 643.008 L 212.341 643.008 Q 212.341 640.396 212.107 635.87 L 212.107 635.87 L 212.107 635.87 Q 211.873 631.345 211.606 627.889 L 211.606 627.889 L 211.606 627.889 Q 211.473 626.079 211.189 622.993 L 211.189 622.993 L 211.123 622.54 L 211.123 622.54 Q 211.056 622.232 211.056 622.026 L 211.056 622.026 L 211.056 622.026 Q 210.789 622.972 210.564 624.351 L 210.564 624.351 L 210.564 624.351 Q 210.338 625.729 209.988 628.485 L 209.988 628.485 L 209.988 628.485 Q 209.204 634.677 208.586 637.907 L 208.586 637.907 L 208.586 637.907 Q 208.52 638.38 208.286 639.347 L 208.286 639.347 L 208.286 639.347 Q 208.036 640.417 207.911 641.167 L 207.911 641.167 L 207.911 641.167 Q 207.785 641.918 207.785 642.556 L 207.785 642.556 L 207.785 642.803 L 207.785 642.803 Q 209.237 643.399 211.239 643.399 L 211.239 643.399 L 211.44 643.399 L 211.44 643.399 Q 211.54 643.42 211.673 643.42 L 211.673 643.42 Z  M 223.72 609.437 L 223.72 609.437 Q 223.536 612.09 222.736 615.752 L 222.736 615.752 L 222.736 615.752 Q 222.585 615.258 222.21 613.942 L 222.21 613.942 L 222.21 613.942 Q 221.835 612.625 221.601 611.72 L 221.601 611.72 L 221.601 611.72 Q 221.334 610.712 221.301 610.28 L 221.301 610.28 L 220.717 609.313 L 220.099 609.869 L 220.099 609.869 Q 220.116 610.486 220.708 612.255 L 220.708 612.255 L 220.708 612.255 Q 221.301 614.024 221.976 615.505 L 221.976 615.505 L 221.976 615.505 Q 222.652 616.986 222.969 616.986 L 222.969 616.986 L 222.969 616.986 Q 223.453 616.986 223.453 616.102 L 223.453 616.102 L 223.453 616.102 Q 223.453 615.32 223.603 614.538 L 223.603 614.538 L 223.603 614.538 Q 223.753 613.757 224.07 612.687 L 224.07 612.687 L 224.07 612.687 Q 224.321 611.761 224.471 611.165 L 224.471 611.165 L 224.437 610.918 L 224.688 610.28 L 224.654 610.074 L 224.654 610.074 Q 224.788 609.704 224.788 609.601 L 224.788 609.601 L 224.788 609.601 Q 224.788 609.231 224.17 609.108 L 224.17 609.108 L 223.72 609.437 Z  M 222.786 619.208 L 222.786 619.208 Q 221.701 619.208 220.883 620.175 L 220.883 620.175 L 220.883 620.175 Q 220.116 621.121 219.741 622.396 L 219.741 622.396 L 219.741 622.396 Q 219.365 623.672 219.365 625.071 L 219.365 625.071 L 219.365 625.071 Q 219.365 627.107 219.866 629.144 L 219.866 629.144 L 219.866 629.144 Q 220.249 630.686 220.75 632.034 L 220.75 632.034 L 220.75 632.034 Q 221.251 633.381 222.068 635.315 L 222.068 635.315 L 222.535 636.426 L 222.535 636.426 Q 223.32 638.298 223.787 640.406 L 223.787 640.406 L 223.787 640.406 Q 224.254 642.515 224.254 644.572 L 224.254 644.572 L 224.254 644.572 Q 224.254 645.477 224.087 646.588 L 224.087 646.588 L 224.087 646.588 Q 223.92 647.699 223.586 648.83 L 223.586 648.83 L 223.586 648.83 Q 223.236 650.044 222.61 650.805 L 222.61 650.805 L 222.61 650.805 Q 221.985 651.566 221.217 651.566 L 221.217 651.566 L 221.217 651.566 Q 220.883 651.566 220.299 651.237 L 220.299 651.237 L 220.299 651.237 Q 219.682 650.928 219.332 650.928 L 219.332 650.928 L 219.332 650.928 Q 218.965 650.928 218.965 651.443 L 218.965 651.443 L 218.965 651.443 Q 219.198 651.936 219.599 652.163 L 219.599 652.163 L 219.599 652.163 Q 219.982 652.389 220.291 652.44 L 220.291 652.44 L 220.291 652.44 Q 220.6 652.492 221.217 652.492 L 221.217 652.492 L 221.217 652.492 Q 222.235 652.492 223.103 651.741 L 223.103 651.741 L 223.103 651.741 Q 223.97 650.99 224.487 649.756 L 224.487 649.756 L 224.487 649.756 Q 224.971 648.583 225.23 647.277 L 225.23 647.277 L 225.23 647.277 Q 225.489 645.971 225.489 644.778 L 225.489 644.778 L 225.489 644.778 Q 225.489 642.844 225.122 640.972 L 225.122 640.972 L 225.122 640.972 Q 224.838 639.491 224.437 638.267 L 224.437 638.267 L 224.437 638.267 Q 224.037 637.043 223.336 635.294 L 223.336 635.294 L 223.019 634.472 L 223.019 634.472 Q 222.368 632.846 221.818 631.386 L 221.818 631.386 L 221.818 631.386 Q 221.234 629.884 220.883 628.136 L 220.883 628.136 L 220.883 628.136 Q 220.533 626.387 220.533 624.721 L 220.533 624.721 L 220.533 624.721 Q 220.533 623.734 220.783 622.787 L 220.783 622.787 L 220.783 622.787 Q 221.05 621.738 221.659 621.018 L 221.659 621.018 L 221.659 621.018 Q 222.268 620.298 223.036 620.298 L 223.036 620.298 L 223.036 620.298 Q 223.286 620.298 223.603 620.504 L 223.603 620.504 L 223.603 620.504 Q 223.937 620.73 224.154 620.73 L 224.154 620.73 L 224.154 620.73 Q 224.371 620.73 224.371 620.401 L 224.371 620.401 L 224.371 620.401 Q 224.371 620.134 224.087 619.856 L 224.087 619.856 L 224.087 619.856 Q 223.803 619.578 223.42 619.393 L 223.42 619.393 L 223.42 619.393 Q 223.036 619.208 222.786 619.208 L 222.786 619.208 Z  M 234.215 633.381 L 234.215 633.381 Q 234.682 635.048 236.618 643.276 L 236.618 643.276 L 238.653 651.957 L 238.653 651.957 Q 238.72 652.224 239.054 652.224 L 239.054 652.224 L 239.054 652.224 Q 239.304 652.224 239.479 652.06 L 239.479 652.06 L 239.479 652.06 Q 239.655 651.895 239.655 651.607 L 239.655 651.607 L 239.655 651.607 Q 239.655 651.463 239.604 651.319 L 239.604 651.319 L 239.604 651.319 Q 239.354 650.188 238.753 647.565 L 238.753 647.565 L 238.753 647.565 Q 238.153 644.942 237.569 642.433 L 237.569 642.433 L 237.569 642.433 Q 237.018 640.067 236.176 636.909 L 236.176 636.909 L 236.176 636.909 Q 235.333 633.752 234.649 631.633 L 234.649 631.633 L 234.649 631.633 Q 234.582 631.53 234.582 631.365 L 234.582 631.365 L 234.582 631.365 Q 234.582 631.304 234.616 631.139 L 234.616 631.139 L 234.616 631.139 Q 234.716 630.933 235.884 627.436 L 235.884 627.436 L 236.084 626.819 L 236.084 626.819 Q 237.302 623.137 237.802 621.779 L 237.802 621.779 L 237.802 621.779 Q 237.886 621.574 238.136 621.039 L 238.136 621.039 L 238.136 621.039 Q 238.603 620.113 238.687 619.331 L 238.687 619.331 L 238.687 619.331 Q 238.687 619.043 238.52 618.879 L 238.52 618.879 L 238.52 618.879 Q 238.353 618.714 238.103 618.714 L 238.103 618.714 L 238.103 618.714 Q 237.535 618.714 235.683 624.556 L 235.683 624.556 L 235.683 624.556 Q 235.466 625.194 234.399 628.485 L 234.399 628.485 L 234.399 628.485 Q 233.297 631.838 232.563 633.793 L 232.563 633.793 L 232.53 633.793 L 232.597 628.691 L 232.597 628.691 Q 232.647 623.775 232.647 621.676 L 232.647 621.676 L 232.647 621.676 Q 232.647 620.483 232.53 620.195 L 232.53 620.195 L 232.53 620.195 Q 232.413 619.887 231.912 619.887 L 231.912 619.887 L 231.912 619.887 Q 231.629 619.887 231.545 620.38 L 231.545 620.38 L 231.545 620.38 Q 231.462 620.956 231.462 621.882 L 231.462 621.882 L 231.462 621.882 Q 231.462 625.009 231.395 629.967 L 231.395 629.967 L 231.395 629.967 Q 231.312 636.179 231.312 638.051 L 231.312 638.051 L 231.312 650.784 L 231.312 650.784 Q 231.312 651.545 231.42 651.823 L 231.42 651.823 L 231.42 651.823 Q 231.529 652.101 231.879 652.101 L 231.879 652.101 L 231.879 652.101 Q 232.213 652.101 232.321 651.833 L 232.321 651.833 L 232.321 651.833 Q 232.43 651.566 232.43 650.867 L 232.43 650.867 L 232.43 635.87 L 232.914 634.883 L 232.914 634.883 Q 233.047 634.636 233.164 634.379 L 233.164 634.379 L 233.164 634.379 Q 233.281 634.122 233.414 633.875 L 233.414 633.875 L 233.414 633.875 Q 233.481 633.669 233.598 633.464 L 233.598 633.464 L 233.598 633.464 Q 233.798 633.052 233.881 632.888 L 233.881 632.888 L 233.881 632.888 Q 233.965 632.723 233.981 632.661 L 233.981 632.661 L 234.215 633.381 Z  M 247.296 651.052 L 247.296 651.052 Q 247.296 651.443 247.422 651.761 L 247.422 651.761 L 247.422 651.761 Q 247.547 652.08 247.78 652.08 L 247.78 652.08 L 247.78 652.08 Q 248.131 652.08 248.331 651.72 L 248.331 651.72 L 248.331 651.72 Q 248.531 651.36 248.531 650.846 L 248.531 650.846 L 248.531 650.846 Q 248.531 650.764 248.514 650.702 L 248.514 650.702 L 248.514 650.702 Q 248.498 650.64 248.498 650.558 L 248.498 650.558 L 248.398 650.435 L 248.398 650.435 Q 248.464 647.946 248.464 641.918 L 248.464 641.918 L 248.464 641.918 Q 248.464 640.972 248.348 639.388 L 248.348 639.388 L 248.348 639.388 Q 248.214 637.578 248.214 636.858 L 248.214 636.858 L 248.214 636.529 L 248.431 635.891 L 248.431 635.891 Q 248.431 635.644 248.381 635.192 L 248.381 635.192 L 248.381 635.192 Q 248.331 634.718 248.331 634.513 L 248.331 634.513 L 248.331 634.513 Q 248.331 633.155 248.473 631.396 L 248.473 631.396 L 248.473 631.396 Q 248.615 629.637 248.781 628.341 L 248.781 628.341 L 248.781 628.341 Q 249.048 626.367 249.682 622.067 L 249.682 622.067 L 249.682 622.067 Q 249.716 621.8 249.833 621.244 L 249.833 621.244 L 249.833 621.244 Q 249.966 620.627 249.966 620.339 L 249.966 620.339 L 249.966 620.339 Q 249.966 620.113 249.883 620.01 L 249.883 620.01 L 249.883 620.01 Q 249.816 619.928 249.741 619.907 L 249.741 619.907 L 249.741 619.907 Q 249.666 619.887 249.582 619.887 L 249.582 619.887 L 249.582 619.887 Q 249.499 619.887 249.449 619.887 L 249.449 619.887 L 249.449 619.887 Q 248.882 619.887 248.448 622.664 L 248.448 622.664 L 248.448 622.664 Q 247.997 625.564 247.764 628.794 L 247.764 628.794 L 247.764 628.794 Q 247.48 632.25 247.43 632.435 L 247.43 632.435 L 247.43 632.435 Q 247.146 631.962 246.662 629.452 L 246.662 629.452 L 246.662 629.452 Q 246.178 626.943 245.761 624.093 L 245.761 624.093 L 245.761 624.093 Q 245.344 621.244 245.277 620.092 L 245.277 620.092 L 244.877 619.763 L 244.877 619.763 Q 244.593 619.763 244.393 619.948 L 244.393 619.948 L 244.393 619.948 Q 244.193 620.134 244.193 620.442 L 244.193 620.442 L 244.193 620.442 Q 244.193 621.162 244.693 623.178 L 244.693 623.178 L 244.693 623.178 Q 244.977 624.392 245.227 625.78 L 245.227 625.78 L 245.227 625.78 Q 245.478 627.169 245.828 629.37 L 245.828 629.37 L 246.279 632.27 L 246.279 632.27 Q 246.295 632.332 246.329 632.548 L 246.329 632.548 L 246.329 632.548 Q 246.362 632.764 246.462 633.217 L 246.462 633.217 L 246.462 633.217 Q 246.813 635.048 246.813 635.603 L 246.813 635.603 L 246.813 635.603 Q 246.813 636.282 247.029 637.537 L 247.029 637.537 L 247.029 637.537 Q 247.23 638.833 247.23 639.511 L 247.23 639.511 L 247.23 639.511 Q 247.23 640.149 247.346 641.219 L 247.346 641.219 L 247.346 641.219 Q 247.463 642.289 247.463 642.926 L 247.463 642.926 L 247.463 642.926 Q 247.463 643.975 247.38 646.999 L 247.38 646.999 L 247.38 646.999 Q 247.296 650.023 247.296 651.052 L 247.296 651.052 Z  M 258.242 633.381 L 258.242 633.381 Q 258.709 635.048 260.645 643.276 L 260.645 643.276 L 262.68 651.957 L 262.68 651.957 Q 262.747 652.224 263.081 652.224 L 263.081 652.224 L 263.081 652.224 Q 263.331 652.224 263.506 652.06 L 263.506 652.06 L 263.506 652.06 Q 263.681 651.895 263.681 651.607 L 263.681 651.607 L 263.681 651.607 Q 263.681 651.463 263.631 651.319 L 263.631 651.319 L 263.631 651.319 Q 263.381 650.188 262.78 647.565 L 262.78 647.565 L 262.78 647.565 Q 262.18 644.942 261.596 642.433 L 261.596 642.433 L 261.596 642.433 Q 261.045 640.067 260.203 636.909 L 260.203 636.909 L 260.203 636.909 Q 259.36 633.752 258.676 631.633 L 258.676 631.633 L 258.676 631.633 Q 258.609 631.53 258.609 631.365 L 258.609 631.365 L 258.609 631.365 Q 258.609 631.304 258.642 631.139 L 258.642 631.139 L 258.642 631.139 Q 258.743 630.933 259.911 627.436 L 259.911 627.436 L 260.111 626.819 L 260.111 626.819 Q 261.329 623.137 261.829 621.779 L 261.829 621.779 L 261.829 621.779 Q 261.913 621.574 262.163 621.039 L 262.163 621.039 L 262.163 621.039 Q 262.63 620.113 262.714 619.331 L 262.714 619.331 L 262.714 619.331 Q 262.714 619.043 262.547 618.879 L 262.547 618.879 L 262.547 618.879 Q 262.38 618.714 262.13 618.714 L 262.13 618.714 L 262.13 618.714 Q 261.562 618.714 259.71 624.556 L 259.71 624.556 L 259.71 624.556 Q 259.493 625.194 258.426 628.485 L 258.426 628.485 L 258.426 628.485 Q 257.324 631.838 256.59 633.793 L 256.59 633.793 L 256.557 633.793 L 256.624 628.691 L 256.624 628.691 Q 256.674 623.775 256.674 621.676 L 256.674 621.676 L 256.674 621.676 Q 256.674 620.483 256.557 620.195 L 256.557 620.195 L 256.557 620.195 Q 256.44 619.887 255.939 619.887 L 255.939 619.887 L 255.939 619.887 Q 255.656 619.887 255.572 620.38 L 255.572 620.38 L 255.572 620.38 Q 255.489 620.956 255.489 621.882 L 255.489 621.882 L 255.489 621.882 Q 255.489 625.009 255.422 629.967 L 255.422 629.967 L 255.422 629.967 Q 255.339 636.179 255.339 638.051 L 255.339 638.051 L 255.339 650.784 L 255.339 650.784 Q 255.339 651.545 255.447 651.823 L 255.447 651.823 L 255.447 651.823 Q 255.556 652.101 255.906 652.101 L 255.906 652.101 L 255.906 652.101 Q 256.24 652.101 256.348 651.833 L 256.348 651.833 L 256.348 651.833 Q 256.457 651.566 256.457 650.867 L 256.457 650.867 L 256.457 635.87 L 256.941 634.883 L 256.941 634.883 Q 257.074 634.636 257.191 634.379 L 257.191 634.379 L 257.191 634.379 Q 257.308 634.122 257.441 633.875 L 257.441 633.875 L 257.441 633.875 Q 257.508 633.669 257.625 633.464 L 257.625 633.464 L 257.625 633.464 Q 257.825 633.052 257.908 632.888 L 257.908 632.888 L 257.908 632.888 Q 257.992 632.723 258.008 632.661 L 258.008 632.661 L 258.242 633.381 Z " fill-rule="evenodd" fill="rgb(255,255,255)"/><path d=" M 205.43 803.013 L 135.187 732.77 L 42.736 640.319 L 205.43 477.625 L 368.124 640.319 L 205.43 803.013 Z " fill="none" vector-effect="non-scaling-stroke" stroke-width="5.835" stroke="rgb(255,255,255)" stroke-linejoin="miter" stroke-linecap="butt" stroke-miterlimit="10"/><path d=" M 149.282 676.315 L 149.282 676.315 Q 149.001 676.315 148.735 676.183 L 148.735 676.183 L 148.735 676.183 Q 148.47 676.051 148.47 675.845 L 148.47 675.845 L 148.47 675.845 Q 148.47 675.695 148.654 675.374 L 148.654 675.374 L 148.654 675.374 Q 148.838 675.075 148.817 674.903 L 148.817 674.903 L 148.752 672.837 L 148.6 666.419 L 148.6 666.419 Q 148.589 666.339 148.557 663.882 L 148.557 663.882 L 148.557 663.584 L 148.557 663.584 Q 148.503 660.863 148.427 660.3 L 148.427 660.3 L 148.427 660.3 Q 148.405 660.14 148.264 659.726 L 148.264 659.726 L 148.264 659.726 Q 148.113 659.301 148.113 659.083 L 148.113 659.083 L 148.113 659.083 Q 148.113 658.521 149.78 658.521 L 149.78 658.521 L 149.889 658.521 L 149.889 658.521 Q 150.463 658.521 150.972 658.739 L 150.972 658.739 L 150.972 658.739 Q 151.481 658.957 151.86 659.336 L 151.86 659.336 L 151.86 659.336 Q 152.206 659.68 152.504 660.22 L 152.504 660.22 L 152.504 660.22 Q 152.802 660.759 152.997 661.333 L 152.997 661.333 L 152.997 661.333 Q 153.17 661.862 153.316 662.527 L 153.316 662.527 L 153.316 662.527 Q 153.462 663.193 153.527 663.767 L 153.527 663.767 L 153.527 663.767 Q 153.592 664.272 153.636 664.904 L 153.636 664.904 L 153.636 664.904 Q 153.679 665.535 153.69 665.914 L 153.69 665.914 L 153.69 666.66 L 153.69 666.66 Q 153.69 668.118 153.327 669.817 L 153.327 669.817 L 153.327 669.817 Q 152.964 671.517 152.304 673.009 L 152.304 673.009 L 152.304 673.009 Q 151.892 673.939 151.264 674.691 L 151.264 674.691 L 151.264 674.691 Q 150.636 675.443 150.062 675.879 L 150.062 675.879 L 150.062 675.879 Q 149.488 676.315 149.282 676.315 L 149.282 676.315 Z  M 149.51 675.121 L 149.618 675.121 L 149.618 675.121 Q 150.419 674.662 151.064 673.801 L 151.064 673.801 L 151.064 673.801 Q 151.708 672.94 152.087 671.93 L 152.087 671.93 L 152.087 671.93 Q 152.412 671.034 152.645 669.909 L 152.645 669.909 L 152.645 669.909 Q 152.878 668.784 152.953 667.854 L 152.953 667.854 L 152.953 667.854 Q 153.018 667.005 153.018 666.236 L 153.018 666.236 L 153.018 666.236 Q 153.018 659.359 149.445 659.359 L 149.445 659.359 L 149.445 659.359 Q 148.979 659.359 148.979 659.623 L 148.979 659.623 L 148.979 659.623 Q 148.979 660.289 149.076 661.586 L 149.076 661.586 L 149.076 661.586 Q 149.174 662.872 149.174 663.526 L 149.174 663.526 L 149.174 663.526 Q 149.174 665.122 149.347 668.015 L 149.347 668.015 L 149.347 668.015 Q 149.51 670.988 149.51 672.481 L 149.51 672.481 L 149.51 675.121 Z  M 160.978 676.269 L 160.978 676.269 Q 160.815 676.269 160.685 676.155 L 160.685 676.155 L 160.685 676.155 Q 160.555 676.04 160.555 675.868 L 160.555 675.868 L 160.555 672.791 L 160.555 672.791 Q 160.555 672.607 159.998 672.429 L 159.998 672.429 L 159.998 672.429 Q 159.44 672.251 158.709 672.142 L 158.709 672.142 L 158.709 672.142 Q 157.978 672.033 157.567 672.033 L 157.567 672.033 L 157.567 672.033 Q 157.502 672.033 157.285 672.917 L 157.285 672.917 L 157.285 672.917 Q 157.101 673.686 156.884 674.685 L 156.884 674.685 L 156.884 674.685 Q 156.668 675.684 156.603 676.04 L 156.603 676.04 L 156.603 676.04 Q 156.559 676.212 156.364 676.212 L 156.364 676.212 L 156.364 676.212 Q 156.191 676.212 156.05 676.097 L 156.05 676.097 L 156.05 676.097 Q 155.91 675.982 155.91 675.822 L 155.91 675.822 L 155.91 675.822 Q 155.91 675.799 155.92 675.787 L 155.92 675.787 L 155.92 675.753 L 156.18 674.582 L 156.635 672.412 L 156.96 670.862 L 156.96 670.862 Q 157.296 669.335 157.805 666.201 L 157.805 666.201 L 157.805 666.201 Q 158.357 662.837 158.606 661.643 L 158.606 661.643 L 158.606 661.643 Q 158.79 660.771 159.007 659.979 L 159.007 659.979 L 159.007 659.979 Q 159.148 659.439 159.332 659.026 L 159.332 659.026 L 159.332 659.026 Q 159.505 658.636 159.646 658.636 L 159.646 658.636 L 159.646 658.636 Q 159.992 658.636 160.155 658.865 L 160.155 658.865 L 160.155 658.865 Q 160.274 659.072 160.507 661.219 L 160.507 661.219 L 160.507 661.219 Q 160.739 663.366 160.913 665.478 L 160.913 665.478 L 161.216 669.381 L 161.216 669.381 Q 161.216 670.391 161.346 672.446 L 161.346 672.446 L 161.346 672.446 Q 161.465 674.593 161.465 675.512 L 161.465 675.512 L 161.465 675.615 L 161.465 675.615 Q 161.465 675.925 161.4 676.074 L 161.4 676.074 L 161.4 676.074 Q 161.324 676.269 160.978 676.269 L 160.978 676.269 Z  M 160.101 671.723 L 160.101 671.723 Q 160.534 671.723 160.534 671.494 L 160.534 671.494 L 160.534 671.494 Q 160.534 670.036 160.382 667.51 L 160.382 667.51 L 160.382 667.51 Q 160.231 664.984 160.057 663.056 L 160.057 663.056 L 160.057 663.056 Q 159.971 662.045 159.787 660.323 L 159.787 660.323 L 159.743 660.071 L 159.743 660.071 Q 159.7 659.898 159.7 659.784 L 159.7 659.784 L 159.7 659.784 Q 159.527 660.312 159.38 661.081 L 159.38 661.081 L 159.38 661.081 Q 159.234 661.85 159.007 663.388 L 159.007 663.388 L 159.007 663.388 Q 158.498 666.844 158.097 668.646 L 158.097 668.646 L 158.097 668.646 Q 158.054 668.911 157.902 669.45 L 157.902 669.45 L 157.902 669.45 Q 157.74 670.047 157.659 670.466 L 157.659 670.466 L 157.659 670.466 Q 157.577 670.885 157.577 671.241 L 157.577 671.241 L 157.577 671.379 L 157.577 671.379 Q 158.519 671.712 159.819 671.712 L 159.819 671.712 L 159.949 671.712 L 159.949 671.712 Q 160.014 671.723 160.101 671.723 L 160.101 671.723 Z  M 167.573 676.717 L 167.573 676.717 Q 167.064 676.717 166.62 676.488 L 166.62 676.488 L 166.62 676.488 Q 166.176 676.258 165.883 675.879 L 165.883 675.879 L 165.883 675.879 Q 165.602 675.523 165.374 675.007 L 165.374 675.007 L 165.374 675.007 Q 165.147 674.49 165.017 673.973 L 165.017 673.973 L 165.017 673.973 Q 164.898 673.526 164.811 672.952 L 164.811 672.952 L 164.811 672.952 Q 164.725 672.378 164.692 671.976 L 164.692 671.976 L 164.692 671.976 Q 164.67 671.712 164.649 671.23 L 164.649 671.23 L 164.627 670.839 L 164.627 670.839 Q 164.519 669.726 164.351 665.788 L 164.351 665.788 L 164.351 665.788 Q 164.183 661.85 164.183 659.646 L 164.183 659.646 L 164.183 659.485 L 164.183 659.485 Q 164.172 659.405 164.172 659.29 L 164.172 659.29 L 164.172 659.29 Q 164.172 658.682 164.519 658.682 L 164.519 658.682 L 164.519 658.682 Q 164.779 658.682 164.876 658.819 L 164.876 658.819 L 164.876 658.819 Q 164.974 658.957 164.974 659.244 L 164.974 659.244 L 164.974 659.416 L 164.974 659.416 Q 164.963 659.497 164.963 659.6 L 164.963 659.6 L 164.963 659.6 Q 164.963 662.355 165.114 666.075 L 165.114 666.075 L 165.114 666.075 Q 165.266 669.794 165.428 671.425 L 165.428 671.425 L 165.428 671.425 Q 165.515 672.446 165.797 673.549 L 165.797 673.549 L 165.797 673.549 Q 165.97 674.272 166.187 674.76 L 166.187 674.76 L 166.187 674.76 Q 166.403 675.248 166.739 675.592 L 166.739 675.592 L 166.739 675.592 Q 167.085 675.959 167.497 675.959 L 167.497 675.959 L 167.497 675.959 Q 167.876 675.959 168.174 675.776 L 168.174 675.776 L 168.174 675.776 Q 168.471 675.592 168.645 675.294 L 168.645 675.294 L 168.645 675.294 Q 168.796 675.041 168.894 674.633 L 168.894 674.633 L 168.894 674.633 Q 168.991 674.226 169.024 673.824 L 169.024 673.824 L 169.024 673.824 Q 169.045 673.365 169.045 673.043 L 169.045 673.043 L 169.045 670.369 L 169.045 670.369 Q 169.045 668.876 168.948 665.972 L 168.948 665.972 L 168.851 662.964 L 168.851 662.964 Q 168.851 662.149 168.807 660.966 L 168.807 660.966 L 168.807 660.966 Q 168.753 659.497 168.753 658.969 L 168.753 658.969 L 168.753 658.969 Q 168.753 658.716 168.878 658.567 L 168.878 658.567 L 168.878 658.567 Q 169.002 658.417 169.186 658.417 L 169.186 658.417 L 169.186 658.417 Q 169.37 658.417 169.495 658.567 L 169.495 658.567 L 169.495 658.567 Q 169.619 658.716 169.619 658.969 L 169.619 658.969 L 169.619 660.748 L 169.619 660.748 Q 169.619 661.93 169.63 662.872 L 169.63 662.872 L 169.63 664.984 L 169.63 664.984 Q 169.63 666.683 169.674 668.991 L 169.674 668.991 L 169.674 668.991 Q 169.706 671.585 169.706 672.883 L 169.706 672.883 L 169.706 672.883 Q 169.706 673.445 169.663 673.893 L 169.663 673.893 L 169.663 673.893 Q 169.619 674.341 169.489 674.857 L 169.489 674.857 L 169.489 674.857 Q 169.349 675.431 169.121 675.816 L 169.121 675.816 L 169.121 675.816 Q 168.894 676.201 168.504 676.453 L 168.504 676.453 L 168.504 676.453 Q 168.092 676.717 167.573 676.717 L 167.573 676.717 Z  M 172.424 676.315 L 172.424 676.315 Q 172.088 676.315 172.088 675.959 L 172.088 675.959 L 172.088 675.959 Q 172.088 675.672 172.316 674.743 L 172.316 674.743 L 172.511 673.939 L 172.846 672.63 L 172.846 672.63 Q 173.02 671.987 173.269 670.69 L 173.269 670.69 L 173.269 670.69 Q 173.54 669.289 173.691 668.658 L 173.691 668.658 L 173.691 668.658 Q 173.843 668.027 174.298 666.534 L 174.298 666.534 L 174.298 666.534 Q 174.828 664.755 175.099 663.509 L 175.099 663.509 L 175.099 663.509 Q 175.37 662.263 175.37 661.311 L 175.37 661.311 L 175.37 661.311 Q 175.034 661.311 174.33 661.379 L 174.33 661.379 L 174.33 661.379 Q 173.68 661.46 173.29 661.46 L 173.29 661.46 L 173.29 661.46 Q 173.161 661.46 173.068 661.339 L 173.068 661.339 L 173.068 661.339 Q 172.976 661.219 172.976 661.081 L 172.976 661.081 L 172.976 661.081 Q 172.976 660.874 173.778 660.782 L 173.778 660.782 L 173.778 660.782 Q 174.525 660.702 175.435 660.702 L 175.435 660.702 L 175.435 660.702 Q 175.63 660.702 175.722 660.719 L 175.722 660.719 L 175.722 660.719 Q 175.814 660.737 175.9 660.828 L 175.9 660.828 L 175.9 660.828 Q 175.987 660.92 175.987 661.081 L 175.987 661.081 L 175.987 661.081 Q 175.987 661.862 175.445 663.653 L 175.445 663.653 L 175.445 663.653 Q 174.904 665.443 174.904 665.765 L 174.904 665.765 L 174.904 665.765 Q 174.796 666.362 174.233 668.371 L 174.233 668.371 L 174.233 668.371 Q 172.836 673.273 172.825 675.546 L 172.825 675.546 L 172.825 675.546 Q 173.009 675.592 173.464 675.592 L 173.464 675.592 L 173.464 675.592 Q 173.659 675.592 173.929 675.546 L 173.929 675.546 L 173.929 675.546 Q 174.233 675.512 174.395 675.512 L 174.395 675.512 L 174.395 675.512 Q 175.034 675.512 175.034 675.822 L 175.034 675.822 L 175.034 675.822 Q 175.034 676.132 174.525 676.132 L 174.525 676.132 L 174.525 676.132 Q 174.319 676.132 173.875 676.097 L 173.875 676.097 L 173.875 676.097 Q 173.442 676.063 173.215 676.063 L 173.215 676.063 L 173.215 676.063 Q 172.976 676.063 172.738 676.189 L 172.738 676.189 L 172.738 676.189 Q 172.478 676.315 172.424 676.315 L 172.424 676.315 Z  M 174.622 660.369 L 174.622 660.369 Q 174.417 660.369 173.978 659.543 L 173.978 659.543 L 173.978 659.543 Q 173.54 658.716 173.155 657.729 L 173.155 657.729 L 173.155 657.729 Q 172.771 656.741 172.76 656.397 L 172.76 656.397 L 173.161 656.087 L 173.54 656.627 L 173.54 656.627 Q 173.561 656.868 173.734 657.43 L 173.734 657.43 L 173.734 657.43 Q 173.886 657.935 174.13 658.67 L 174.13 658.67 L 174.13 658.67 Q 174.373 659.405 174.471 659.68 L 174.471 659.68 L 174.471 659.68 Q 174.991 657.637 175.11 656.156 L 175.11 656.156 L 175.402 655.972 L 175.402 655.972 Q 175.803 656.041 175.803 656.248 L 175.803 656.248 L 175.803 656.248 Q 175.803 656.305 175.716 656.512 L 175.716 656.512 L 175.738 656.627 L 175.575 656.982 L 175.597 657.12 L 175.597 657.12 Q 175.5 657.453 175.337 657.97 L 175.337 657.97 L 175.337 657.97 Q 175.131 658.567 175.034 659.003 L 175.034 659.003 L 175.034 659.003 Q 174.936 659.439 174.936 659.875 L 174.936 659.875 L 174.936 659.875 Q 174.936 660.369 174.622 660.369 L 174.622 660.369 Z  M 179.972 676.625 L 179.972 676.625 Q 179.896 676.625 179.788 676.533 L 179.788 676.533 L 179.788 676.533 Q 179.68 676.442 179.647 676.361 L 179.647 676.361 L 179.647 676.361 Q 179.864 675.776 179.864 672.251 L 179.864 672.251 L 179.864 672.251 Q 179.864 671.482 179.788 670.288 L 179.788 670.288 L 179.69 668.623 L 179.55 668.325 L 179.615 668.038 L 179.615 668.038 Q 179.496 667.705 179.219 666.936 L 179.219 666.936 L 179.219 666.936 Q 178.943 666.167 178.673 665.363 L 178.673 665.363 L 178.434 664.663 L 178.434 664.663 Q 178.348 664.41 178.061 663.549 L 178.061 663.549 L 178.061 663.549 Q 177.774 662.688 177.633 662.149 L 177.633 662.149 L 177.633 662.149 Q 177.471 661.563 177.449 661.265 L 177.449 661.265 L 177.752 661.012 L 177.752 661.012 Q 177.969 661.046 178.402 662.504 L 178.402 662.504 L 178.402 662.504 Q 178.694 663.48 179.095 664.892 L 179.095 664.892 L 179.257 665.443 L 179.257 665.443 Q 179.669 666.901 179.842 666.959 L 179.842 666.959 L 179.929 666.534 L 179.885 666.419 L 179.885 666.419 Q 180.037 666.224 180.319 664.743 L 180.319 664.743 L 180.319 664.743 Q 180.589 663.228 180.882 661.965 L 180.882 661.965 L 180.882 661.965 Q 181.196 660.656 181.456 660.656 L 181.456 660.656 L 181.456 660.656 Q 181.564 660.656 181.656 660.725 L 181.656 660.725 L 181.656 660.725 Q 181.748 660.794 181.748 660.897 L 181.748 660.897 L 181.748 660.897 Q 181.748 661.253 181.131 663.423 L 181.131 663.423 L 181.066 663.675 L 181.066 663.675 Q 180.893 664.307 180.768 664.778 L 180.768 664.778 L 180.768 664.778 Q 180.643 665.248 180.524 665.822 L 180.524 665.822 L 180.524 665.822 Q 180.264 666.97 180.264 667.969 L 180.264 667.969 L 180.264 667.969 Q 180.373 668.245 180.373 668.371 L 180.373 668.371 L 180.373 668.371 Q 180.373 668.486 180.308 668.692 L 180.308 668.692 L 180.308 668.692 Q 180.243 668.911 180.243 669.048 L 180.243 669.048 L 180.243 669.048 Q 180.243 669.358 180.329 670.116 L 180.329 670.116 L 180.329 670.116 Q 180.416 670.874 180.416 671.195 L 180.416 671.195 L 180.416 671.195 Q 180.416 672.228 180.427 673.055 L 180.427 673.055 L 180.427 673.055 Q 180.438 673.881 180.438 674.926 L 180.438 674.926 L 180.438 675.03 L 180.438 675.03 Q 180.438 676.625 179.972 676.625 L 179.972 676.625 Z  M 193.194 677.486 L 193.194 677.486 Q 192.75 677.486 192.75 675.982 L 192.75 675.982 L 192.75 674.444 L 192.75 674.444 Q 192.75 671.046 192.621 669.14 L 192.621 669.14 L 192.621 669.14 Q 192.588 668.692 192.534 668.268 L 192.534 668.268 L 192.534 668.268 Q 192.447 667.556 192.447 667.246 L 192.447 667.246 L 192.447 667.246 Q 192.447 666.66 192.491 665.788 L 192.491 665.788 L 192.491 665.788 Q 192.534 664.915 192.534 664.33 L 192.534 664.33 L 192.534 664.33 Q 192.534 663.526 192.447 663.216 L 192.447 663.216 L 192.447 663.216 Q 192.014 663.572 189.783 673.124 L 189.783 673.124 L 189.783 673.124 Q 189.751 673.296 189.74 673.468 L 189.74 673.468 L 189.74 673.468 Q 189.675 674.031 189.567 674.421 L 189.567 674.421 L 189.567 674.421 Q 189.502 674.662 189.383 674.806 L 189.383 674.806 L 189.383 674.806 Q 189.263 674.949 189.112 674.949 L 189.112 674.949 L 189.112 674.949 Q 188.755 674.949 188.603 674.765 L 188.603 674.765 L 188.603 674.765 Q 188.451 674.582 188.451 674.18 L 188.451 674.18 L 188.451 674.18 Q 188.451 673.56 187.883 670.902 L 187.883 670.902 L 187.883 670.902 Q 187.314 668.245 186.664 665.788 L 186.664 665.788 L 186.664 665.788 Q 186.015 663.331 185.766 663.079 L 185.766 663.079 L 185.766 663.079 Q 185.712 664.376 185.571 666.947 L 185.571 666.947 L 185.571 666.947 Q 185.419 669.806 185.349 671.763 L 185.349 671.763 L 185.349 671.763 Q 185.278 673.721 185.278 675.466 L 185.278 675.466 L 185.278 675.466 Q 185.278 675.994 185.3 676.407 L 185.3 676.407 L 185.3 676.407 Q 185.203 676.717 184.834 676.717 L 184.834 676.717 L 184.834 676.717 Q 184.759 676.717 184.607 676.591 L 184.607 676.591 L 184.607 676.591 Q 184.455 676.465 184.455 676.384 L 184.455 676.384 L 184.455 676.384 Q 184.455 673.985 184.802 668.968 L 184.802 668.968 L 184.802 668.968 Q 185.148 663.951 185.148 661.552 L 185.148 661.552 L 185.148 661.552 Q 185.148 661.471 185.083 661.322 L 185.083 661.322 L 185.083 661.322 Q 185.018 661.184 185.018 661.104 L 185.018 661.104 L 185.018 661.104 Q 185.018 660.748 185.614 660.748 L 185.614 660.748 L 185.614 660.748 Q 185.776 660.748 185.89 660.84 L 185.89 660.84 L 185.89 660.84 Q 186.004 660.932 186.047 661.104 L 186.047 661.104 L 186.047 661.104 Q 186.134 661.46 186.145 661.804 L 186.145 661.804 L 186.145 661.804 Q 186.166 662.103 186.166 662.091 L 186.166 662.091 L 186.166 662.091 Q 186.275 662.746 186.794 663.974 L 186.794 663.974 L 186.794 663.974 Q 187.271 665.111 187.433 665.73 L 187.433 665.73 L 187.498 665.972 L 187.498 665.972 Q 187.509 666.029 187.682 666.649 L 187.682 666.649 L 187.682 666.649 Q 187.834 667.234 187.964 667.757 L 187.964 667.757 L 187.964 667.757 Q 188.094 668.279 188.159 668.669 L 188.159 668.669 L 188.451 669.289 L 188.451 669.289 Q 188.505 669.588 188.7 670.437 L 188.7 670.437 L 188.7 670.437 Q 188.895 671.252 188.987 671.849 L 188.987 671.849 L 188.987 671.849 Q 189.079 672.446 189.09 672.975 L 189.09 672.975 L 189.09 672.975 Q 189.253 672.722 189.859 670.501 L 189.859 670.501 L 189.859 670.501 Q 190.466 668.279 191.077 665.782 L 191.077 665.782 L 191.077 665.782 Q 191.689 663.285 191.819 662.539 L 191.819 662.539 L 191.819 662.539 Q 191.819 662.55 191.873 662.183 L 191.873 662.183 L 191.873 662.183 Q 191.906 661.908 191.96 661.707 L 191.96 661.707 L 191.96 661.707 Q 192.014 661.506 192.09 661.276 L 192.09 661.276 L 192.09 661.276 Q 192.252 660.794 192.621 660.794 L 192.621 660.794 L 192.621 660.794 Q 192.772 660.794 192.972 660.937 L 192.972 660.937 L 192.972 660.937 Q 193.173 661.081 193.173 661.219 L 193.173 661.219 L 193.173 661.219 Q 193.173 671.069 193.465 671.585 L 193.465 671.585 L 193.444 672.814 L 193.422 674.054 L 193.422 674.054 Q 193.422 675.512 193.595 676.315 L 193.595 676.315 L 193.649 676.499 L 193.649 676.499 Q 193.682 676.637 193.682 676.717 L 193.682 676.717 L 193.682 676.717 Q 193.682 676.981 193.541 677.234 L 193.541 677.234 L 193.541 677.234 Q 193.4 677.486 193.194 677.486 L 193.194 677.486 Z  M 192.393 663.101 L 192.447 663.124 L 192.447 663.079 L 192.426 663.079 L 192.393 663.101 Z  M 199.313 676.717 L 199.313 676.717 Q 196.714 676.717 196.714 668.061 L 196.714 668.061 L 196.714 667.246 L 196.714 667.246 Q 196.714 660.691 198.317 660.691 L 198.317 660.691 L 198.317 660.691 Q 198.425 660.691 198.62 660.748 L 198.62 660.748 L 198.62 660.748 Q 199.086 660.92 199.53 661.001 L 199.53 661.001 L 199.53 661.001 Q 199.974 661.081 200.017 661.092 L 200.017 661.092 L 200.017 661.092 Q 200.45 661.173 200.861 661.999 L 200.861 661.999 L 200.861 661.999 Q 201.327 662.849 201.56 664.215 L 201.56 664.215 L 201.56 664.215 Q 201.793 665.581 201.793 667.074 L 201.793 667.074 L 201.749 667.188 L 201.771 668.589 L 201.793 669.99 L 201.793 669.99 Q 201.793 670.483 201.782 670.994 L 201.782 670.994 L 201.782 670.994 Q 201.771 671.505 201.717 672.148 L 201.717 672.148 L 201.717 672.148 Q 201.652 672.906 201.549 673.485 L 201.549 673.485 L 201.549 673.485 Q 201.446 674.065 201.273 674.662 L 201.273 674.662 L 201.273 674.662 Q 201.078 675.305 200.824 675.736 L 200.824 675.736 L 200.824 675.736 Q 200.569 676.166 200.19 676.43 L 200.19 676.43 L 200.19 676.43 Q 199.811 676.717 199.313 676.717 L 199.313 676.717 Z  M 199.226 676.04 L 199.226 676.04 Q 199.649 676.04 199.984 675.695 L 199.984 675.695 L 199.984 675.695 Q 200.32 675.351 200.515 674.731 L 200.515 674.731 L 200.515 674.731 Q 200.926 673.445 201.024 672.056 L 201.024 672.056 L 201.024 672.056 Q 201.111 670.851 201.111 669.806 L 201.111 669.806 L 201.111 669.806 Q 201.111 668.956 200.991 667.028 L 200.991 667.028 L 200.991 667.028 Q 200.861 665.179 200.861 664.249 L 200.861 664.249 L 200.775 664.066 L 200.818 663.951 L 200.818 663.951 Q 200.818 663.274 200.569 662.694 L 200.569 662.694 L 200.569 662.694 Q 200.32 662.114 199.892 661.764 L 199.892 661.764 L 199.892 661.764 Q 199.465 661.414 198.956 661.414 L 198.956 661.414 L 198.956 661.414 Q 197.938 661.414 197.754 662.447 L 197.754 662.447 L 197.754 662.447 Q 197.667 662.952 197.656 663.457 L 197.656 663.457 L 197.656 663.457 Q 197.656 663.572 197.651 664.1 L 197.651 664.1 L 197.651 664.1 Q 197.645 664.628 197.607 665.088 L 197.607 665.088 L 197.607 665.088 Q 197.569 665.547 197.515 665.834 L 197.515 665.834 L 197.515 665.834 Q 197.515 666.109 197.461 666.936 L 197.461 666.936 L 197.461 666.936 Q 197.407 667.762 197.407 668.038 L 197.407 668.038 L 197.429 668.968 L 197.45 669.898 L 197.45 669.898 Q 197.45 670.931 197.634 672.446 L 197.634 672.446 L 197.634 672.446 Q 197.764 673.491 197.948 674.22 L 197.948 674.22 L 197.948 674.22 Q 198.133 674.949 198.447 675.477 L 198.447 675.477 L 198.447 675.477 Q 198.782 676.04 199.226 676.04 L 199.226 676.04 Z  M 213.326 676.694 L 213.326 676.694 Q 212.806 676.694 212.081 674.582 L 212.081 674.582 L 212.081 674.582 Q 211.615 673.25 211.22 671.729 L 211.22 671.729 L 211.22 671.729 Q 210.824 670.208 210.581 668.956 L 210.581 668.956 L 210.581 668.956 Q 210.337 667.705 210.315 667.143 L 210.315 667.143 L 210.261 667.051 L 209.915 667.808 L 209.915 667.808 Q 209.611 668.463 209.519 668.704 L 209.519 668.704 L 209.519 668.704 Q 209.427 668.945 209.319 669.393 L 209.319 669.393 L 209.319 669.393 Q 209.2 669.898 209.2 670.323 L 209.2 670.323 L 209.2 670.323 Q 209.2 670.529 209.146 671.161 L 209.146 671.161 L 209.146 671.161 Q 209.092 671.792 209.092 672.01 L 209.092 672.01 L 209.092 675.018 L 209.092 675.018 Q 209.092 675.282 209.167 675.695 L 209.167 675.695 L 209.167 675.695 Q 209.243 676.109 209.243 676.361 L 209.243 676.361 L 209.243 676.361 Q 209.243 676.488 209.135 676.568 L 209.135 676.568 L 209.135 676.568 Q 209.027 676.648 208.886 676.648 L 208.886 676.648 L 208.886 676.648 Q 208.594 676.648 208.496 676.551 L 208.496 676.551 L 208.496 676.551 Q 208.399 676.453 208.399 676.155 L 208.399 676.155 L 208.399 671.735 L 208.399 671.735 Q 208.399 671.184 208.507 670.254 L 208.507 670.254 L 208.507 670.254 Q 208.604 669.266 208.604 668.773 L 208.604 668.773 L 208.604 668.773 Q 208.604 667.958 208.713 666.5 L 208.713 666.5 L 208.713 666.5 Q 208.821 665.053 208.821 664.227 L 208.821 664.227 L 208.821 660.966 L 208.821 660.966 Q 208.951 660.702 209.243 660.702 L 209.243 660.702 L 209.243 660.702 Q 209.406 660.702 209.536 660.84 L 209.536 660.84 L 209.536 660.84 Q 209.666 660.978 209.666 661.15 L 209.666 661.15 L 209.666 661.15 Q 209.471 661.529 209.471 662.275 L 209.471 662.275 L 209.471 662.275 Q 209.471 663.274 209.427 664.755 L 209.427 664.755 L 209.427 664.755 Q 209.384 666.236 209.384 667.246 L 209.384 667.246 L 209.384 667.246 Q 209.601 667.154 211.117 663.997 L 211.117 663.997 L 211.117 663.997 Q 212.622 660.851 212.774 660.851 L 212.774 660.851 L 212.774 660.851 Q 213.337 660.851 213.369 661.242 L 213.369 661.242 L 213.369 661.242 Q 212.005 663.366 210.998 665.593 L 210.998 665.593 L 210.976 666.35 L 210.954 667.097 L 210.954 667.097 Q 210.954 667.774 211.317 669.381 L 211.317 669.381 L 211.317 669.381 Q 211.68 670.988 212.173 672.607 L 212.173 672.607 L 212.173 672.607 Q 212.665 674.226 213.012 674.926 L 213.012 674.926 L 213.012 674.926 Q 213.109 675.11 213.283 675.339 L 213.283 675.339 L 213.283 675.339 Q 213.499 675.649 213.602 675.885 L 213.602 675.885 L 213.602 675.885 Q 213.705 676.12 213.705 676.338 L 213.705 676.338 L 213.705 676.338 Q 213.705 676.499 213.597 676.597 L 213.597 676.597 L 213.597 676.597 Q 213.488 676.694 213.326 676.694 L 213.326 676.694 Z  M 220.159 676.476 L 220.159 676.476 Q 219.921 676.476 219.823 676.447 L 219.823 676.447 L 219.823 676.447 Q 219.726 676.419 219.683 676.315 L 219.683 676.315 L 219.683 676.315 Q 219.639 676.212 219.607 675.959 L 219.607 675.959 L 219.239 672.883 L 219.239 672.883 Q 218.838 672.768 218.145 672.768 L 218.145 672.768 L 218.145 672.768 Q 217.896 672.768 217.333 672.71 L 217.333 672.71 L 217.333 672.71 Q 216.77 672.653 216.564 672.653 L 216.564 672.653 L 216.564 672.653 Q 216.488 672.653 216.455 672.676 L 216.455 672.676 L 216.455 672.676 Q 216.423 672.699 216.412 672.756 L 216.412 672.756 L 216.412 672.756 Q 216.401 672.779 216.401 672.802 L 216.401 672.802 L 216.401 672.802 Q 216.401 672.825 216.391 672.837 L 216.391 672.837 L 216.347 673.307 L 216.347 673.307 Q 216.293 673.904 216.098 674.995 L 216.098 674.995 L 216.098 674.995 Q 215.979 675.592 215.838 675.982 L 215.838 675.982 L 215.838 675.982 Q 215.676 676.384 215.503 676.384 L 215.503 676.384 L 215.503 676.384 Q 215.362 676.384 215.21 676.252 L 215.21 676.252 L 215.21 676.252 Q 215.059 676.12 215.059 675.982 L 215.059 675.982 L 215.08 675.913 L 215.102 675.845 L 215.102 675.845 Q 215.47 674.341 215.773 672.527 L 215.773 672.527 L 216.022 671.069 L 216.022 671.069 Q 216.098 670.644 216.174 670.116 L 216.174 670.116 L 216.304 669.289 L 216.542 667.74 L 216.542 667.74 Q 216.64 667.085 216.932 665.685 L 216.932 665.685 L 216.932 665.685 Q 217.214 664.249 217.322 663.503 L 217.322 663.503 L 217.408 662.642 L 217.452 662.263 L 217.452 662.263 Q 217.506 661.632 217.56 661.311 L 217.56 661.311 L 217.56 661.311 Q 217.647 660.714 217.701 660.61 L 217.701 660.61 L 217.852 660.622 L 217.852 660.622 Q 217.917 660.633 218.004 660.633 L 218.004 660.633 L 218.004 660.633 Q 218.275 660.633 218.405 660.495 L 218.405 660.495 L 218.405 660.495 Q 218.556 660.495 218.681 660.599 L 218.681 660.599 L 218.681 660.599 Q 218.805 660.702 218.805 660.851 L 218.805 660.851 L 218.805 660.851 Q 218.805 661.517 218.843 662.074 L 218.843 662.074 L 218.843 662.074 Q 218.881 662.631 218.968 663.434 L 218.968 663.434 L 219.098 664.674 L 219.098 664.674 Q 219.369 667.992 220.332 676.063 L 220.332 676.063 L 220.332 676.132 L 220.332 676.132 Q 220.332 676.373 220.159 676.476 L 220.159 676.476 Z  M 218.914 672.251 L 219.141 672.251 L 219.141 672.251 Q 218.979 669.783 218.296 662.252 L 218.296 662.252 L 218.296 662.252 Q 217.149 668.302 217.094 668.532 L 217.094 668.532 L 217.094 668.532 Q 216.585 671.207 216.585 671.953 L 216.585 671.953 L 216.585 671.953 Q 216.585 672.068 217.441 672.159 L 217.441 672.159 L 217.441 672.159 Q 218.296 672.251 218.914 672.251 L 218.914 672.251 Z  M 231.508 677.486 L 231.508 677.486 Q 231.064 677.486 231.064 675.982 L 231.064 675.982 L 231.064 674.444 L 231.064 674.444 Q 231.064 671.046 230.934 669.14 L 230.934 669.14 L 230.934 669.14 Q 230.902 668.692 230.847 668.268 L 230.847 668.268 L 230.847 668.268 Q 230.761 667.556 230.761 667.246 L 230.761 667.246 L 230.761 667.246 Q 230.761 666.66 230.804 665.788 L 230.804 665.788 L 230.804 665.788 Q 230.847 664.915 230.847 664.33 L 230.847 664.33 L 230.847 664.33 Q 230.847 663.526 230.761 663.216 L 230.761 663.216 L 230.761 663.216 Q 230.328 663.572 228.097 673.124 L 228.097 673.124 L 228.097 673.124 Q 228.064 673.296 228.054 673.468 L 228.054 673.468 L 228.054 673.468 Q 227.989 674.031 227.88 674.421 L 227.88 674.421 L 227.88 674.421 Q 227.815 674.662 227.696 674.806 L 227.696 674.806 L 227.696 674.806 Q 227.577 674.949 227.425 674.949 L 227.425 674.949 L 227.425 674.949 Q 227.068 674.949 226.916 674.765 L 226.916 674.765 L 226.916 674.765 Q 226.765 674.582 226.765 674.18 L 226.765 674.18 L 226.765 674.18 Q 226.765 673.56 226.196 670.902 L 226.196 670.902 L 226.196 670.902 Q 225.628 668.245 224.978 665.788 L 224.978 665.788 L 224.978 665.788 Q 224.328 663.331 224.079 663.079 L 224.079 663.079 L 224.079 663.079 Q 224.025 664.376 223.884 666.947 L 223.884 666.947 L 223.884 666.947 Q 223.733 669.806 223.662 671.763 L 223.662 671.763 L 223.662 671.763 Q 223.592 673.721 223.592 675.466 L 223.592 675.466 L 223.592 675.466 Q 223.592 675.994 223.614 676.407 L 223.614 676.407 L 223.614 676.407 Q 223.516 676.717 223.148 676.717 L 223.148 676.717 L 223.148 676.717 Q 223.072 676.717 222.92 676.591 L 222.92 676.591 L 222.92 676.591 Q 222.769 676.465 222.769 676.384 L 222.769 676.384 L 222.769 676.384 Q 222.769 673.985 223.115 668.968 L 223.115 668.968 L 223.115 668.968 Q 223.462 663.951 223.462 661.552 L 223.462 661.552 L 223.462 661.552 Q 223.462 661.471 223.397 661.322 L 223.397 661.322 L 223.397 661.322 Q 223.332 661.184 223.332 661.104 L 223.332 661.104 L 223.332 661.104 Q 223.332 660.748 223.928 660.748 L 223.928 660.748 L 223.928 660.748 Q 224.09 660.748 224.204 660.84 L 224.204 660.84 L 224.204 660.84 Q 224.317 660.932 224.361 661.104 L 224.361 661.104 L 224.361 661.104 Q 224.447 661.46 224.458 661.804 L 224.458 661.804 L 224.458 661.804 Q 224.48 662.103 224.48 662.091 L 224.48 662.091 L 224.48 662.091 Q 224.588 662.746 225.108 663.974 L 225.108 663.974 L 225.108 663.974 Q 225.584 665.111 225.747 665.73 L 225.747 665.73 L 225.812 665.972 L 225.812 665.972 Q 225.823 666.029 225.996 666.649 L 225.996 666.649 L 225.996 666.649 Q 226.148 667.234 226.278 667.757 L 226.278 667.757 L 226.278 667.757 Q 226.407 668.279 226.472 668.669 L 226.472 668.669 L 226.765 669.289 L 226.765 669.289 Q 226.819 669.588 227.014 670.437 L 227.014 670.437 L 227.014 670.437 Q 227.209 671.252 227.301 671.849 L 227.301 671.849 L 227.301 671.849 Q 227.393 672.446 227.404 672.975 L 227.404 672.975 L 227.404 672.975 Q 227.566 672.722 228.173 670.501 L 228.173 670.501 L 228.173 670.501 Q 228.779 668.279 229.391 665.782 L 229.391 665.782 L 229.391 665.782 Q 230.003 663.285 230.133 662.539 L 230.133 662.539 L 230.133 662.539 Q 230.133 662.55 230.187 662.183 L 230.187 662.183 L 230.187 662.183 Q 230.219 661.908 230.273 661.707 L 230.273 661.707 L 230.273 661.707 Q 230.328 661.506 230.403 661.276 L 230.403 661.276 L 230.403 661.276 Q 230.566 660.794 230.934 660.794 L 230.934 660.794 L 230.934 660.794 Q 231.086 660.794 231.286 660.937 L 231.286 660.937 L 231.286 660.937 Q 231.486 661.081 231.486 661.219 L 231.486 661.219 L 231.486 661.219 Q 231.486 671.069 231.779 671.585 L 231.779 671.585 L 231.757 672.814 L 231.735 674.054 L 231.735 674.054 Q 231.735 675.512 231.909 676.315 L 231.909 676.315 L 231.963 676.499 L 231.963 676.499 Q 231.995 676.637 231.995 676.717 L 231.995 676.717 L 231.995 676.717 Q 231.995 676.981 231.855 677.234 L 231.855 677.234 L 231.855 677.234 Q 231.714 677.486 231.508 677.486 L 231.508 677.486 Z  M 230.707 663.101 L 230.761 663.124 L 230.761 663.079 L 230.739 663.079 L 230.707 663.101 Z  M 235.688 676.533 L 235.688 676.533 Q 235.493 676.533 235.379 676.39 L 235.379 676.39 L 235.379 676.39 Q 235.266 676.246 235.266 676.04 L 235.266 676.04 L 235.266 676.04 Q 235.244 675.741 235.244 675.305 L 235.244 675.305 L 235.244 675.305 Q 235.244 674.559 235.363 672.814 L 235.363 672.814 L 235.363 672.814 Q 235.471 671.241 235.471 670.346 L 235.471 670.346 L 235.45 669.289 L 235.428 668.256 L 235.428 668.256 Q 235.428 667.315 235.493 665.443 L 235.493 665.443 L 235.493 665.443 Q 235.558 663.561 235.558 662.631 L 235.558 662.631 L 235.558 662.631 Q 235.558 661.885 235.536 661.265 L 235.536 661.265 L 235.45 661.15 L 235.45 661.012 L 235.45 661.012 Q 235.45 660.714 235.553 660.559 L 235.553 660.559 L 235.553 660.559 Q 235.656 660.404 235.915 660.404 L 235.915 660.404 L 235.915 660.404 Q 236.121 660.404 236.614 660.541 L 236.614 660.541 L 236.614 660.541 Q 237.107 660.679 237.507 660.857 L 237.507 660.857 L 237.507 660.857 Q 237.908 661.035 237.908 661.173 L 237.908 661.173 L 237.886 661.242 L 237.886 661.242 Q 238.287 661.908 238.433 662.596 L 238.433 662.596 L 238.433 662.596 Q 238.579 663.285 238.579 664.353 L 238.579 664.353 L 238.579 664.353 Q 238.579 666.109 238.222 667.143 L 238.222 667.143 L 238.244 667.143 L 238.244 667.143 Q 238.19 667.292 237.908 667.751 L 237.908 667.751 L 237.908 667.751 Q 237.637 668.164 237.594 668.256 L 237.594 668.256 L 237.594 668.256 Q 237.995 668.578 238.26 669.22 L 238.26 669.22 L 238.26 669.22 Q 238.525 669.863 238.601 670.449 L 238.601 670.449 L 238.601 670.449 Q 238.655 671.08 238.688 671.689 L 238.688 671.689 L 238.709 672.297 L 238.709 672.63 L 238.709 672.63 Q 238.709 674.88 237.388 675.959 L 237.388 675.959 L 237.388 675.959 Q 236.684 676.533 235.688 676.533 L 235.688 676.533 Z  M 236.197 667.785 L 236.359 667.785 L 236.359 667.785 Q 237.821 667.785 237.821 664.651 L 237.821 664.651 L 237.821 664.651 Q 237.821 664.192 237.789 663.641 L 237.789 663.641 L 237.756 663.193 L 237.713 663.147 L 237.713 663.147 Q 237.659 662.447 237.475 661.919 L 237.475 661.919 L 237.475 661.919 Q 237.356 661.586 237.123 661.391 L 237.123 661.391 L 237.123 661.391 Q 236.89 661.196 236.598 661.196 L 236.598 661.196 L 236.598 661.196 Q 236.11 661.196 236.11 664.284 L 236.11 664.284 L 236.11 664.284 Q 236.11 664.869 236.121 665.088 L 236.121 665.088 L 236.121 665.088 Q 236.132 665.306 236.132 665.547 L 236.132 665.547 L 236.132 665.547 Q 236.132 665.995 236.121 666.35 L 236.121 666.35 L 236.121 666.35 Q 236.11 666.718 236.11 667.188 L 236.11 667.188 L 236.11 667.475 L 236.154 667.625 L 236.197 667.785 Z  M 236.024 675.615 L 236.024 675.615 Q 236.554 675.615 237.015 675.236 L 237.015 675.236 L 237.015 675.236 Q 237.475 674.857 237.746 674.26 L 237.746 674.26 L 237.746 674.26 Q 238.016 673.663 238.016 673.066 L 238.016 673.066 L 238.027 672.986 L 238.027 672.791 L 238.027 672.538 L 238.027 672.538 Q 238.027 671.999 238 671.591 L 238 671.591 L 238 671.591 Q 237.973 671.184 237.865 670.644 L 237.865 670.644 L 237.865 670.644 Q 237.746 670.024 237.551 669.611 L 237.551 669.611 L 237.551 669.611 Q 237.356 669.198 237.009 668.899 L 237.009 668.899 L 237.009 668.899 Q 236.641 668.601 236.175 668.601 L 236.175 668.601 L 236.175 668.601 Q 236.067 670.277 236.067 671.804 L 236.067 671.804 L 236.067 672.343 L 236.067 672.343 Q 236.067 673.02 236.132 673.422 L 236.132 673.422 L 236.132 673.422 Q 236.002 673.675 236.002 674.547 L 236.002 674.547 L 236.002 674.547 Q 236.002 674.915 236.013 675.156 L 236.013 675.156 L 236.024 675.615 Z  M 245.976 676.476 L 245.976 676.476 Q 245.738 676.476 245.64 676.447 L 245.64 676.447 L 245.64 676.447 Q 245.543 676.419 245.499 676.315 L 245.499 676.315 L 245.499 676.315 Q 245.456 676.212 245.423 675.959 L 245.423 675.959 L 245.055 672.883 L 245.055 672.883 Q 244.655 672.768 243.962 672.768 L 243.962 672.768 L 243.962 672.768 Q 243.712 672.768 243.149 672.71 L 243.149 672.71 L 243.149 672.71 Q 242.586 672.653 242.38 672.653 L 242.38 672.653 L 242.38 672.653 Q 242.305 672.653 242.272 672.676 L 242.272 672.676 L 242.272 672.676 Q 242.24 672.699 242.229 672.756 L 242.229 672.756 L 242.229 672.756 Q 242.218 672.779 242.218 672.802 L 242.218 672.802 L 242.218 672.802 Q 242.218 672.825 242.207 672.837 L 242.207 672.837 L 242.164 673.307 L 242.164 673.307 Q 242.11 673.904 241.915 674.995 L 241.915 674.995 L 241.915 674.995 Q 241.796 675.592 241.655 675.982 L 241.655 675.982 L 241.655 675.982 Q 241.492 676.384 241.319 676.384 L 241.319 676.384 L 241.319 676.384 Q 241.178 676.384 241.027 676.252 L 241.027 676.252 L 241.027 676.252 Q 240.875 676.12 240.875 675.982 L 240.875 675.982 L 240.897 675.913 L 240.919 675.845 L 240.919 675.845 Q 241.287 674.341 241.59 672.527 L 241.59 672.527 L 241.839 671.069 L 241.839 671.069 Q 241.915 670.644 241.991 670.116 L 241.991 670.116 L 242.121 669.289 L 242.359 667.74 L 242.359 667.74 Q 242.456 667.085 242.749 665.685 L 242.749 665.685 L 242.749 665.685 Q 243.03 664.249 243.139 663.503 L 243.139 663.503 L 243.225 662.642 L 243.268 662.263 L 243.268 662.263 Q 243.323 661.632 243.377 661.311 L 243.377 661.311 L 243.377 661.311 Q 243.463 660.714 243.518 660.61 L 243.518 660.61 L 243.669 660.622 L 243.669 660.622 Q 243.734 660.633 243.821 660.633 L 243.821 660.633 L 243.821 660.633 Q 244.091 660.633 244.221 660.495 L 244.221 660.495 L 244.221 660.495 Q 244.373 660.495 244.498 660.599 L 244.498 660.599 L 244.498 660.599 Q 244.622 660.702 244.622 660.851 L 244.622 660.851 L 244.622 660.851 Q 244.622 661.517 244.66 662.074 L 244.66 662.074 L 244.66 662.074 Q 244.698 662.631 244.785 663.434 L 244.785 663.434 L 244.915 664.674 L 244.915 664.674 Q 245.185 667.992 246.149 676.063 L 246.149 676.063 L 246.149 676.132 L 246.149 676.132 Q 246.149 676.373 245.976 676.476 L 245.976 676.476 Z  M 244.73 672.251 L 244.958 672.251 L 244.958 672.251 Q 244.795 669.783 244.113 662.252 L 244.113 662.252 L 244.113 662.252 Q 242.965 668.302 242.911 668.532 L 242.911 668.532 L 242.911 668.532 Q 242.402 671.207 242.402 671.953 L 242.402 671.953 L 242.402 671.953 Q 242.402 672.068 243.258 672.159 L 243.258 672.159 L 243.258 672.159 Q 244.113 672.251 244.73 672.251 L 244.73 672.251 Z  M 252.268 676.671 L 251.943 676.556 L 251.943 676.556 Q 251.683 676.246 251.374 674.932 L 251.374 674.932 L 251.374 674.932 Q 251.065 673.617 250.806 671.964 L 250.806 671.964 L 250.806 671.964 Q 250.589 670.575 250.297 669.312 L 250.297 669.312 L 250.297 669.312 Q 250.026 668.13 249.788 668.13 L 249.788 668.13 L 249.701 668.13 L 249.701 668.13 Q 249.214 668.13 249.214 668.463 L 249.214 668.463 L 249.214 668.463 Q 249.214 669.737 249.409 673.617 L 249.409 673.617 L 249.409 673.617 Q 249.484 675.695 249.593 676.086 L 249.593 676.086 L 249.43 676.476 L 249.105 676.476 L 248.943 676.292 L 248.943 676.292 Q 248.586 666.121 248.586 661.483 L 248.586 661.483 L 248.586 661.483 Q 248.586 661.196 248.613 661.046 L 248.613 661.046 L 248.613 661.046 Q 248.64 660.897 248.748 660.748 L 248.748 660.748 L 248.748 660.748 Q 248.867 660.587 249.073 660.587 L 249.073 660.587 L 249.073 660.587 Q 250.188 660.587 250.876 661.184 L 250.876 661.184 L 250.876 661.184 Q 251.564 661.781 251.564 662.872 L 251.564 662.872 L 251.564 664.582 L 251.564 664.582 Q 251.564 665.019 251.298 665.753 L 251.298 665.753 L 251.298 665.753 Q 251.033 666.488 250.697 667.165 L 250.697 667.165 L 250.697 667.165 Q 250.405 667.728 250.405 667.762 L 250.405 667.762 L 250.405 667.762 Q 250.405 667.843 251.25 671.517 L 251.25 671.517 L 251.25 671.517 Q 252.094 675.19 252.159 675.374 L 252.159 675.374 L 252.159 675.374 Q 252.159 675.385 252.192 675.46 L 252.192 675.46 L 252.192 675.46 Q 252.224 675.535 252.343 675.776 L 252.343 675.776 L 252.343 675.776 Q 252.517 676.132 252.517 676.338 L 252.517 676.338 L 252.517 676.338 Q 252.517 676.671 252.268 676.671 L 252.268 676.671 Z  M 249.344 667.544 L 249.344 667.544 Q 249.755 667.544 250.096 667.091 L 250.096 667.091 L 250.096 667.091 Q 250.437 666.637 250.611 665.949 L 250.611 665.949 L 250.611 665.949 Q 250.784 665.294 250.876 664.686 L 250.876 664.686 L 250.876 664.686 Q 250.968 664.077 250.968 663.664 L 250.968 663.664 L 250.968 663.664 Q 250.968 663.124 250.919 662.769 L 250.919 662.769 L 250.919 662.769 Q 250.871 662.413 250.741 662.022 L 250.741 662.022 L 250.741 662.022 Q 250.6 661.621 250.28 661.408 L 250.28 661.408 L 250.28 661.408 Q 249.961 661.196 249.474 661.196 L 249.474 661.196 L 249.474 661.196 Q 249.354 661.196 249.284 661.397 L 249.284 661.397 L 249.284 661.397 Q 249.214 661.598 249.214 661.804 L 249.214 661.804 L 249.214 661.804 Q 249.214 662.964 249.257 664.651 L 249.257 664.651 L 249.257 664.651 Q 249.3 666.339 249.3 667.498 L 249.3 667.498 L 249.344 667.544 Z  M 256.448 676.625 L 256.448 676.625 Q 256.372 676.625 256.263 676.533 L 256.263 676.533 L 256.263 676.533 Q 256.155 676.442 256.123 676.361 L 256.123 676.361 L 256.123 676.361 Q 256.339 675.776 256.339 672.251 L 256.339 672.251 L 256.339 672.251 Q 256.339 671.482 256.263 670.288 L 256.263 670.288 L 256.166 668.623 L 256.025 668.325 L 256.09 668.038 L 256.09 668.038 Q 255.971 667.705 255.695 666.936 L 255.695 666.936 L 255.695 666.936 Q 255.419 666.167 255.148 665.363 L 255.148 665.363 L 254.91 664.663 L 254.91 664.663 Q 254.823 664.41 254.536 663.549 L 254.536 663.549 L 254.536 663.549 Q 254.249 662.688 254.108 662.149 L 254.108 662.149 L 254.108 662.149 Q 253.946 661.563 253.924 661.265 L 253.924 661.265 L 254.228 661.012 L 254.228 661.012 Q 254.444 661.046 254.877 662.504 L 254.877 662.504 L 254.877 662.504 Q 255.17 663.48 255.57 664.892 L 255.57 664.892 L 255.733 665.443 L 255.733 665.443 Q 256.144 666.901 256.318 666.959 L 256.318 666.959 L 256.404 666.534 L 256.361 666.419 L 256.361 666.419 Q 256.513 666.224 256.794 664.743 L 256.794 664.743 L 256.794 664.743 Q 257.065 663.228 257.357 661.965 L 257.357 661.965 L 257.357 661.965 Q 257.671 660.656 257.931 660.656 L 257.931 660.656 L 257.931 660.656 Q 258.039 660.656 258.131 660.725 L 258.131 660.725 L 258.131 660.725 Q 258.224 660.794 258.224 660.897 L 258.224 660.897 L 258.224 660.897 Q 258.224 661.253 257.606 663.423 L 257.606 663.423 L 257.541 663.675 L 257.541 663.675 Q 257.368 664.307 257.244 664.778 L 257.244 664.778 L 257.244 664.778 Q 257.119 665.248 257 665.822 L 257 665.822 L 257 665.822 Q 256.74 666.97 256.74 667.969 L 256.74 667.969 L 256.74 667.969 Q 256.848 668.245 256.848 668.371 L 256.848 668.371 L 256.848 668.371 Q 256.848 668.486 256.783 668.692 L 256.783 668.692 L 256.783 668.692 Q 256.718 668.911 256.718 669.048 L 256.718 669.048 L 256.718 669.048 Q 256.718 669.358 256.805 670.116 L 256.805 670.116 L 256.805 670.116 Q 256.892 670.874 256.892 671.195 L 256.892 671.195 L 256.892 671.195 Q 256.892 672.228 256.902 673.055 L 256.902 673.055 L 256.902 673.055 Q 256.913 673.881 256.913 674.926 L 256.913 674.926 L 256.913 675.03 L 256.913 675.03 Q 256.913 676.625 256.448 676.625 L 256.448 676.625 Z  M 261.158 676.556 L 261.158 676.556 Q 260.898 676.51 260.687 676.355 L 260.687 676.355 L 260.687 676.355 Q 260.476 676.201 260.444 675.982 L 260.444 675.982 L 260.552 675.799 L 260.552 675.799 Q 260.725 675.822 260.942 675.879 L 260.942 675.879 L 260.942 675.879 Q 261.202 675.959 261.353 675.959 L 261.353 675.959 L 261.353 675.959 Q 261.851 675.959 262.225 675.552 L 262.225 675.552 L 262.225 675.552 Q 262.599 675.144 262.783 674.478 L 262.783 674.478 L 262.783 674.478 Q 263.107 673.307 263.107 672.182 L 263.107 672.182 L 263.107 672.182 Q 263.107 671.31 262.848 670.414 L 262.848 670.414 L 262.848 670.414 Q 262.588 669.519 262.165 668.704 L 262.165 668.704 L 261.905 668.21 L 261.905 668.21 Q 261.44 667.315 261.18 666.764 L 261.18 666.764 L 261.18 666.764 Q 260.92 666.213 260.725 665.535 L 260.725 665.535 L 260.725 665.535 Q 260.444 664.605 260.444 663.664 L 260.444 663.664 L 260.444 663.664 Q 260.444 663.239 260.546 662.717 L 260.546 662.717 L 260.546 662.717 Q 260.649 662.195 260.844 661.678 L 260.844 661.678 L 260.844 661.678 Q 261.05 661.127 261.407 660.788 L 261.407 660.788 L 261.407 660.788 Q 261.765 660.45 262.198 660.45 L 262.198 660.45 L 262.198 660.45 Q 262.469 660.45 262.756 660.656 L 262.756 660.656 L 262.756 660.656 Q 263.043 660.863 263.043 661.104 L 263.043 661.104 L 263.043 661.104 Q 263.043 661.288 262.75 661.288 L 262.75 661.288 L 262.75 661.288 Q 262.674 661.288 262.523 661.219 L 262.523 661.219 L 262.523 661.219 Q 262.382 661.15 262.284 661.15 L 262.284 661.15 L 262.284 661.15 Q 261.949 661.15 261.689 661.431 L 261.689 661.431 L 261.689 661.431 Q 261.429 661.712 261.288 662.172 L 261.288 662.172 L 261.288 662.172 Q 261.017 663.033 261.017 663.756 L 261.017 663.756 L 261.017 663.756 Q 261.017 664.215 261.126 664.674 L 261.126 664.674 L 261.202 665.065 L 261.202 665.065 Q 261.212 665.168 261.332 665.535 L 261.332 665.535 L 261.44 665.949 L 261.602 666.373 L 261.992 667.097 L 262.165 667.407 L 262.165 667.407 Q 262.469 667.946 262.674 668.336 L 262.674 668.336 L 262.674 668.336 Q 262.88 668.727 263.086 669.198 L 263.086 669.198 L 263.086 669.198 Q 263.302 669.703 263.411 670.127 L 263.411 670.127 L 263.411 670.127 Q 263.519 670.552 263.606 671.172 L 263.606 671.172 L 263.606 671.172 Q 263.681 671.735 263.681 672.458 L 263.681 672.458 L 263.681 672.458 Q 263.681 673.64 263.378 674.57 L 263.378 674.57 L 263.378 674.57 Q 263.183 675.156 262.918 675.563 L 262.918 675.563 L 262.918 675.563 Q 262.653 675.971 262.241 676.223 L 262.241 676.223 L 262.241 676.223 Q 261.808 676.499 261.267 676.499 L 261.267 676.499 L 261.158 676.556 Z  M 262.902 661.219 L 262.923 661.219 L 262.923 661.219 Q 262.923 661.196 262.902 661.196 L 262.902 661.196 L 262.902 661.219 Z " fill-rule="evenodd" fill="rgb(255,255,255)"/><g id="null"><path d=" M 243.979 696.491 L 243.979 693.625 C 243 693.625 242.005 693.625 240.992 693.625 L 240.992 699.854 C 241.953 699.854 242.949 699.854 243.979 699.872 L 243.979 699.872 L 243.979 696.491 Z  M 250.878 696.474 L 250.878 693.608 C 249.934 693.608 248.938 693.625 247.891 693.625 L 247.891 693.625 L 247.891 696.491 L 247.891 699.906 L 247.891 699.906 C 248.852 699.906 249.848 699.906 250.878 699.906 L 250.878 699.906 L 250.878 696.474 Z  M 254.808 693.59 L 254.808 699.923 C 255.786 699.923 256.781 699.923 257.811 699.94 L 257.811 693.59 C 257.279 693.573 256.232 693.573 254.808 693.59 Z  M 263.234 692.801 C 262.736 692.063 261.913 691.668 260.952 691.668 C 259.888 691.668 258.926 692.32 258.515 693.316 L 258.412 693.556 L 258.309 693.556 L 258.309 699.923 L 258.429 699.923 L 258.532 700.18 C 258.6 700.352 258.686 700.524 258.806 700.678 C 258.858 700.747 258.909 700.815 258.961 700.884 L 258.961 700.884 C 259.458 701.468 260.231 701.828 261.072 701.828 C 261.775 701.828 262.427 701.553 262.925 701.056 C 263.406 700.558 263.68 699.906 263.68 699.185 L 263.68 694.277 C 263.697 693.745 263.526 693.23 263.234 692.801 Z  M 254.344 696.456 L 254.344 693.59 C 253.469 693.59 252.456 693.59 251.358 693.608 L 251.358 699.906 C 252.336 699.906 253.332 699.906 254.344 699.923 L 254.344 699.923 L 254.344 696.456 Z  M 244.442 693.625 L 244.442 693.625 L 244.442 695.77 L 244.442 699.889 C 245.403 699.889 246.398 699.889 247.428 699.906 L 247.428 693.642 C 246.467 693.608 245.454 693.625 244.442 693.625 Z  M 240.512 696.491 L 240.512 693.625 C 232.909 693.642 225.169 693.625 222.578 693.539 C 219.574 693.453 212.263 692.767 205.176 692.114 L 203.94 691.994 C 197.899 691.428 192.184 690.913 189.301 690.742 C 183.672 690.433 174.731 690.107 172.122 690.021 L 172.002 690.021 L 150.859 690.021 C 146.877 690.021 145.676 692.543 145.59 694.037 L 145.59 696.147 L 145.59 696.508 L 145.59 696.851 L 145.59 699.46 C 145.607 699.597 145.676 700.489 146.311 701.399 C 146.946 702.326 148.25 703.407 150.841 703.407 L 172.036 703.407 C 172.071 703.407 172.191 703.407 172.362 703.39 C 179.57 703.149 185.577 702.892 189.284 702.686 C 192.167 702.532 197.882 702 203.94 701.433 L 204.163 701.416 C 210.925 700.781 219.334 700.009 222.595 699.906 C 224.671 699.837 230.489 699.82 239.911 699.837 L 240.529 699.837 L 240.512 696.491 Z  M 209.586 695.049 C 209.569 695.118 209.5 695.152 209.432 695.152 L 209.054 695.135 L 205.639 695.032 L 204.644 694.998 L 160.624 693.625 L 155.938 693.47 L 155.458 693.453 C 155.235 693.453 155.235 693.127 155.458 693.11 C 155.509 693.11 155.578 693.11 155.63 693.11 C 157.088 693.041 158.856 692.955 160.83 692.887 C 165.549 692.698 171.47 692.543 177.133 692.543 C 182.814 692.543 186.761 692.595 202.739 694.088 C 205.742 694.363 207.939 694.62 209.483 694.809 C 209.586 694.843 209.621 694.963 209.586 695.049 Z " fill="rgb(255,255,255)"/></g><g id="null"><g id="null"><g id="null"><g id="null"><g id="null"><g id="null"><path d=" M 239.348 605.951 C 237.203 599.035 234.371 592.393 230.904 586.095 C 226.339 577.806 220.676 570.117 214.034 563.287 C 214.034 563.287 214.017 563.27 214.017 563.27 C 213.485 562.961 213.176 563.167 212.507 563.527 C 208.8 565.621 205.076 567.663 201.352 569.74 C 201.283 569.534 201.077 568.744 200.476 567.68 C 197.267 562.034 189.785 560.558 184.087 563.681 C 181.221 565.26 178.887 568.212 178.647 571.576 C 178.458 574.064 179.35 576.398 180.534 578.561 C 181.015 579.419 181.53 580.243 182.045 581.049 C 178.303 583.435 174.081 586.129 172.005 590.162 C 170.46 593.165 170.546 596.752 171.593 599.893 C 172.091 601.832 172.726 603.771 173.498 605.676 C 173.687 606.14 173.876 606.586 174.081 607.032 C 174.699 606.895 175.3 606.758 175.918 606.62 C 175.729 606.174 175.523 605.728 175.334 605.265 C 174.785 603.926 174.236 602.467 173.584 600.7 C 171.576 595.173 172.623 590.934 176.175 587.468 C 176.621 587.022 177.102 586.61 177.582 586.181 L 178.561 585.374 C 179.144 584.911 179.745 584.464 180.363 584.035 L 181.427 583.315 C 182.01 582.92 182.611 582.542 183.212 582.182 L 184.293 581.53 C 185.46 580.826 186.627 580.14 187.759 579.47 C 191.827 577.068 195.928 574.734 200.047 572.4 L 201.146 571.782 L 203.737 570.323 L 204.87 569.688 L 207.427 568.264 L 208.525 567.646 C 209.967 566.839 211.391 566.033 212.833 565.226 C 214.909 573.189 218.805 580.723 222.564 587.983 C 222.941 588.703 223.319 589.424 223.713 590.145 C 226.339 594.916 229.411 599.447 233.341 603.171 C 234.457 604.218 235.624 605.213 236.894 606.105 C 236.653 606.26 236.43 606.397 236.19 606.535 C 236.722 606.861 237.271 607.17 237.803 607.496 C 238.061 607.341 238.318 607.17 238.576 606.998 C 238.61 606.981 238.644 606.946 238.679 606.929 C 238.73 606.912 238.781 606.878 238.816 606.843 C 238.97 606.758 239.073 606.689 239.142 606.603 C 239.365 606.466 239.365 606.26 239.348 605.951 Z  M 187.124 577.891 C 185.666 574.922 182.868 570.872 187.124 568.813 C 190.299 567.285 194.075 568.59 195.688 571.524 C 195.877 571.868 196.031 572.228 196.169 572.623 C 193.131 574.339 190.111 576.089 187.124 577.891 Z  M 197.645 571.799 C 197.507 571.439 197.353 571.095 197.164 570.752 C 195.208 567.2 190.9 565.535 186.918 567.097 C 184.962 567.852 183.366 569.431 183.16 571.593 C 182.903 574.236 184.602 576.484 185.7 578.767 C 184.945 579.23 184.207 579.693 183.469 580.157 C 182.954 579.35 182.422 578.544 181.959 577.686 C 181.221 576.347 180.62 574.922 180.397 573.412 C 179.899 570.151 181.667 567.337 184.327 565.586 C 189.132 562.394 196.22 563.304 199.018 568.384 C 199.275 568.847 199.876 570.357 199.944 570.512 C 199.927 570.529 198.468 571.336 197.645 571.799 Z  M 225.206 589.356 C 224.674 588.377 224.16 587.399 223.645 586.421 C 220.418 580.088 217.055 573.584 214.995 566.736 C 220.607 572.88 225.447 579.659 229.445 586.901 C 232.466 592.393 234.989 598.142 236.997 604.115 C 231.934 600.202 228.261 594.933 225.206 589.356 Z " fill="rgb(255,255,255)"/></g></g></g></g><g id="null"><g id="null"/></g><g id="null"><g id="null"><g id="null"><g id="null"><path d=" M 231.093 561.296 C 228.038 562.858 225.018 564.505 222.066 566.256 C 221.688 566.479 221.379 566.239 221.276 565.913 C 221.191 565.655 221.259 565.329 221.551 565.157 C 224.503 563.407 227.523 561.759 230.578 560.198 C 230.956 560.009 231.282 560.249 231.385 560.575 C 231.471 560.833 231.402 561.142 231.093 561.296 Z " fill="rgb(255,255,255)"/></g></g></g><g id="null"><g id="null"><g id="null"><path d=" M 224.572 557.932 C 223.302 558.722 222.203 559.717 221.259 560.884 C 220.916 561.313 220.298 561.073 220.161 560.678 C 220.109 560.524 220.144 560.352 220.264 560.198 C 221.345 558.859 222.598 557.761 224.057 556.851 C 224.417 556.628 224.743 556.851 224.829 557.177 C 224.932 557.435 224.863 557.743 224.572 557.932 Z " fill="rgb(255,255,255)"/></g></g></g><g id="null"><g id="null"><g id="null"><path d=" M 220.847 548.459 C 220.35 549.746 219.869 551.033 219.406 552.338 C 218.359 555.255 217.381 558.207 216.471 561.193 C 216.282 561.811 215.493 561.622 215.338 561.142 C 215.304 561.039 215.304 560.918 215.338 560.781 C 216.197 557.949 217.14 555.135 218.119 552.338 C 218.634 550.896 219.166 549.472 219.698 548.047 C 219.921 547.464 220.71 547.618 220.847 548.081 C 220.899 548.202 220.899 548.322 220.847 548.459 Z " fill="rgb(255,255,255)"/></g></g></g><g id="null"><g id="null"><g id="null"><path d=" M 212.747 556.525 C 212.507 557.469 212.335 558.413 212.232 559.374 C 212.146 560.043 211.22 560.06 211.048 559.528 C 211.031 559.46 211.014 559.374 211.031 559.271 C 211.168 558.207 211.357 557.16 211.614 556.113 C 211.769 555.478 212.575 555.667 212.747 556.182 C 212.764 556.285 212.764 556.405 212.747 556.525 Z " fill="rgb(255,255,255)"/></g></g></g><g id="null"><g id="null"><g id="null"><path d=" M 207.53 561.142 C 206.243 558.533 205.024 555.873 203.874 553.196 C 203.857 553.178 203.857 553.144 203.84 553.127 C 203.634 552.458 204.664 551.994 204.956 552.698 C 206.105 555.375 207.324 558.018 208.611 560.644 C 208.628 560.678 208.645 560.712 208.645 560.747 C 208.868 561.382 207.856 561.811 207.53 561.142 Z " fill="rgb(255,255,255)"/></g></g></g></g><g id="null"><g id="null"/></g><g id="null"><g id="null"/></g><g id="null"><path d=" M 239.176 606.655 C 239.09 606.74 238.987 606.809 238.85 606.895 C 238.799 606.929 238.764 606.946 238.713 606.981 C 238.679 607.015 238.661 607.032 238.61 607.049 C 238.352 607.221 238.095 607.375 237.838 607.547 C 237.306 607.221 236.756 606.895 236.224 606.586 C 228.055 601.712 219.852 596.872 211.666 591.998 C 214.223 595.98 216.626 600.047 218.857 604.218 C 219.166 604.801 218.599 605.659 217.93 605.265 C 210.962 601.214 204.012 597.13 197.095 592.977 C 196.357 595.311 195.517 597.61 194.504 599.841 C 194.195 600.528 193.852 601.214 193.526 601.884 C 193.354 602.227 193.251 602.519 192.891 602.673 C 192.771 602.725 192.633 602.742 192.513 602.776 C 188.171 603.857 183.795 604.853 179.419 605.848 C 178.269 606.105 177.102 606.38 175.952 606.637 C 175.334 606.775 174.734 606.912 174.116 607.049 C 173.91 606.603 173.721 606.157 173.532 605.694 C 174.15 605.556 174.751 605.419 175.369 605.282 C 179.47 604.372 183.555 603.411 187.656 602.45 C 189.15 602.107 190.643 601.746 192.136 601.386 C 192.17 601.386 192.187 601.369 192.221 601.369 C 192.153 601.3 192.376 600.974 192.445 600.837 C 192.582 600.562 192.719 600.288 192.839 600.013 C 193.097 599.481 193.337 598.949 193.577 598.417 C 194.521 596.255 195.311 594.024 195.997 591.775 C 196.117 591.363 196.581 591.003 197.027 591.261 C 203.462 595.122 209.915 598.932 216.385 602.707 C 214 598.434 211.46 594.264 208.748 590.179 C 208.371 589.613 209.04 588.755 209.675 589.132 C 217.569 593.852 225.481 598.52 233.393 603.222 C 235.298 604.355 237.237 605.505 239.176 606.655 Z " fill="rgb(255,255,255)"/></g></g><path d=" M 203.857 553.127 C 203.651 552.458 204.681 551.994 204.973 552.698 C 206.123 555.375 207.341 558.018 208.628 560.644 C 208.645 560.678 208.663 560.712 208.663 560.747 C 208.868 561.399 207.856 561.811 207.53 561.159 C 206.243 558.55 205.024 555.89 203.874 553.213 C 203.874 553.178 203.874 553.144 203.857 553.127 Z " fill="rgb(255,255,255)"/><path d=" M 211.031 559.511 C 211.014 559.443 210.997 559.357 211.014 559.254 C 211.151 558.19 211.34 557.143 211.597 556.096 C 211.752 555.461 212.558 555.65 212.73 556.165 C 212.764 556.268 212.764 556.388 212.73 556.508 C 212.49 557.452 212.318 558.396 212.215 559.357 C 212.129 560.043 211.202 560.043 211.031 559.511 Z " fill="rgb(255,255,255)"/><path d=" M 215.338 561.124 C 215.304 561.021 215.304 560.901 215.338 560.764 C 216.197 557.932 217.14 555.118 218.119 552.32 L 219.406 552.32 C 218.359 555.238 217.381 558.19 216.471 561.176 C 216.282 561.794 215.493 561.622 215.338 561.124 Z " fill="rgb(255,255,255)"/><path d=" M 220.178 560.678 C 220.127 560.524 220.161 560.352 220.281 560.198 C 221.362 558.859 222.615 557.761 224.074 556.851 C 224.434 556.628 224.76 556.851 224.846 557.177 C 224.932 557.435 224.863 557.761 224.572 557.932 C 223.302 558.722 222.203 559.717 221.259 560.884 C 220.916 561.33 220.298 561.073 220.178 560.678 Z " fill="rgb(255,255,255)"/><path d=" M 221.551 565.175 C 224.503 563.424 227.523 561.777 230.578 560.215 C 230.956 560.026 231.282 560.266 231.385 560.592 C 231.471 560.85 231.402 561.159 231.093 561.313 C 228.038 562.875 225.018 564.522 222.066 566.273 C 221.688 566.496 221.379 566.256 221.276 565.93 C 221.191 565.655 221.259 565.346 221.551 565.175 Z " fill="rgb(255,255,255)"/><path d=" M 239.348 605.951 C 237.203 599.035 234.371 592.393 230.904 586.095 C 226.339 577.806 220.676 570.117 214.034 563.287 C 214.034 563.287 214.017 563.27 214.017 563.27 C 213.485 562.961 213.176 563.167 212.507 563.527 C 208.8 565.621 205.076 567.663 201.352 569.74 C 201.283 569.534 201.077 568.744 200.476 567.68 C 197.267 562.034 189.785 560.558 184.087 563.681 C 181.221 565.26 178.887 568.212 178.647 571.576 C 178.458 574.064 179.35 576.398 180.534 578.561 C 181.015 579.419 181.53 580.243 182.045 581.049 C 178.303 583.435 174.081 586.129 172.005 590.162 C 170.46 593.165 170.546 596.752 171.593 599.893 C 172.091 601.832 172.726 603.771 173.498 605.676 C 173.687 606.14 173.876 606.586 174.081 607.032 C 174.699 606.895 175.3 606.758 175.918 606.62 C 177.068 606.363 178.235 606.088 179.384 605.831 C 183.761 604.836 188.12 603.84 192.479 602.759 C 192.599 602.725 192.736 602.707 192.856 602.656 C 193.217 602.501 193.32 602.21 193.491 601.867 C 193.835 601.197 194.161 600.511 194.47 599.824 C 195.482 597.593 196.323 595.294 197.061 592.96 C 203.977 597.113 210.911 601.197 217.896 605.247 C 218.565 605.642 219.131 604.767 218.822 604.201 C 216.591 600.03 214.189 595.963 211.632 591.981 C 219.801 596.855 228.004 601.695 236.19 606.569 C 236.722 606.895 237.271 607.204 237.803 607.53 C 238.061 607.375 238.318 607.204 238.576 607.032 C 238.61 607.015 238.644 606.981 238.679 606.964 C 238.73 606.946 238.781 606.912 238.816 606.878 C 238.97 606.792 239.073 606.723 239.142 606.637 C 239.365 606.466 239.365 606.26 239.348 605.951 Z  M 229.445 586.901 C 232.466 592.393 234.989 598.142 236.997 604.115 C 231.951 600.202 228.278 594.933 225.206 589.356 C 224.674 588.377 224.16 587.399 223.645 586.421 C 220.418 580.088 217.055 573.584 214.995 566.736 C 220.607 572.88 225.447 579.642 229.445 586.901 Z  M 187.124 568.813 C 190.299 567.285 194.075 568.59 195.688 571.524 C 195.877 571.868 196.031 572.228 196.169 572.623 C 193.131 574.339 190.111 576.089 187.124 577.891 C 185.666 574.922 182.868 570.872 187.124 568.813 Z " fill="rgb(255,255,255)"/></g><path d=" M 240.086 703.355 L 240.086 703.355 L 240.086 699.992 L 240.086 703.355 Z " fill="rgb(255,255,0)"/><path d=" M 243.552 699.992 L 243.552 703.373 L 243.552 703.373 L 243.552 699.992 Z " fill="rgb(255,255,0)"/><path d=" M 244.016 697.126 L 244.016 699.254 L 244.016 697.126 L 244.016 697.126 Z " fill="rgb(255,255,0)"/><path d=" M 247.465 697.109 L 247.465 703.39 L 247.465 699.975 L 247.465 697.109 L 247.465 697.109 Z " fill="rgb(255,255,0)"/><path d=" M 250.452 703.39 L 250.452 703.39 L 250.452 699.975 L 250.452 703.39 Z " fill="rgb(255,255,0)"/><path d=" M 253.918 703.407 L 253.918 703.407 L 253.918 699.957 L 253.918 703.407 Z " fill="rgb(255,255,0)"/></g></svg>