<?xml version="1.0" standalone="no"?><!-- Generator: Gravit.io --><svg xmlns="http://www.w3.org/2000/svg" xmlns:xlink="http://www.w3.org/1999/xlink" style="isolation:isolate" viewBox="708.26 3406.106 140.484 140.484" width="140.484" height="140.484"><g id="null"><path d="M 708.26 3476.348 L 778.502 3406.106 L 848.744 3476.348 L 778.502 3546.59 L 708.26 3476.348 M 810.988 3487.59 L 760.716 3505.557 C 758.192 3506.459 755.415 3505.144 754.513 3502.62 L 743.079 3470.629 C 742.177 3468.105 743.492 3465.328 746.016 3464.426 L 796.287 3446.459 C 798.811 3445.557 801.589 3446.871 802.491 3449.395 L 813.924 3481.386 C 814.827 3483.91 813.512 3486.688 810.988 3487.59 M 708.26 3476.348 Z" style="stroke:none;fill:#B82D2E;stroke-miterlimit:10;fill-rule:evenodd;"/><path d=" M 769.362 3479.274 L 778.502 3476.008 C 781.026 3475.106 782.341 3472.328 781.439 3469.804 C 780.537 3467.28 777.759 3465.965 775.235 3466.867 C 769.808 3468.807 769.362 3479.274 769.362 3479.274 Z  M 769.362 3479.274 L 760.221 3482.541 C 757.697 3483.443 754.92 3482.128 754.018 3479.604 C 753.116 3477.08 754.431 3474.303 756.955 3473.401 C 762.382 3471.461 769.362 3479.274 769.362 3479.274 Z  M 769.362 3479.274 C 769.362 3479.274 762.287 3484.39 763.488 3491.681 M 769.362 3479.274 C 769.362 3479.274 778.157 3478.973 781.769 3485.148" fill="none" vector-effect="non-scaling-stroke" stroke-width="2.5" stroke="rgb(184,45,46)" stroke-linejoin="round" stroke-linecap="round" stroke-miterlimit="10"/><path d=" M 809.5 3467.4 L 793 3473.3 C 792.3 3473.6 791.6 3473.2 791.4 3472.6 C 791.1 3471.9 791.5 3471.2 792.1 3471 L 808.6 3465.1 C 809.3 3464.9 810 3465.2 810.2 3465.9 C 810.4 3466.5 810.1 3467.2 809.5 3467.4 Z " fill="rgb(184,45,46)"/><path d=" M 763.5 3466.7 L 760.8 3459.1 C 760.6 3458.5 760.9 3457.7 761.6 3457.5 C 762.2 3457.3 762.9 3457.6 763.2 3458.3 L 765.9 3465.9 C 766.1 3466.5 765.8 3467.2 765.1 3467.4 C 764.5 3467.7 763.8 3467.3 763.5 3466.7 Z " fill="rgb(184,45,46)"/><path d=" M 776.1 3502.1 L 772 3490.7 C 771.8 3490.1 772.1 3489.3 772.8 3489.1 C 773.4 3488.9 774.1 3489.2 774.4 3489.9 L 778.5 3501.3 C 778.7 3501.9 778.3 3502.7 777.7 3502.9 C 777.1 3503.1 776.3 3502.8 776.1 3502.1 Z " fill="rgb(184,45,46)"/></g></svg>